<svg viewBox="0 0 1434 400" xmlns="http://www.w3.org/2000/svg"><g><g><g><g><g><line x1="51.52000045776367" y1="377.95999908447266" x2="46.52000045776367" y2="377.95999908447266" style="visibility: inherit;" fill="rgb(0, 0, 0)" stroke="rgb(204, 204, 204)" stroke-width="1px"></line><line x1="51.52000045776367" y1="335.96444363064234" x2="46.52000045776367" y2="335.96444363064234" style="visibility: inherit;" fill="rgb(0, 0, 0)" stroke="rgb(204, 204, 204)" stroke-width="1px"></line><line x1="51.52000045776367" y1="293.9688881768121" x2="46.52000045776367" y2="293.9688881768121" style="visibility: inherit;" fill="rgb(0, 0, 0)" stroke="rgb(204, 204, 204)" stroke-width="1px"></line><line x1="51.52000045776367" y1="251.97333272298178" x2="46.52000045776367" y2="251.97333272298178" style="visibility: inherit;" fill="rgb(0, 0, 0)" stroke="rgb(204, 204, 204)" stroke-width="1px"></line><line x1="51.52000045776367" y1="209.9777772691515" x2="46.52000045776367" y2="209.9777772691515" style="visibility: inherit;" fill="rgb(0, 0, 0)" stroke="rgb(204, 204, 204)" stroke-width="1px"></line><line x1="51.52000045776367" y1="167.98222181532117" x2="46.52000045776367" y2="167.98222181532117" style="visibility: inherit;" fill="rgb(0, 0, 0)" stroke="rgb(204, 204, 204)" stroke-width="1px"></line><line x1="51.52000045776367" y1="125.9866663614909" x2="46.52000045776367" y2="125.9866663614909" style="visibility: inherit;" fill="rgb(0, 0, 0)" stroke="rgb(204, 204, 204)" stroke-width="1px"></line><line x1="51.52000045776367" y1="83.99111090766058" x2="46.52000045776367" y2="83.99111090766058" style="visibility: inherit;" fill="rgb(0, 0, 0)" stroke="rgb(204, 204, 204)" stroke-width="1px"></line><line x1="51.52000045776367" y1="41.99555545383032" x2="46.52000045776367" y2="41.99555545383032" style="visibility: inherit;" fill="rgb(0, 0, 0)" stroke="rgb(204, 204, 204)" stroke-width="1px"></line><line x1="51.52000045776367" y1="0" x2="46.52000045776367" y2="0" style="visibility: inherit;" fill="rgb(0, 0, 0)" stroke="rgb(204, 204, 204)" stroke-width="1px"></line></g><g transform="translate(41.52000045776367, 0)"><text style="text-anchor: end; visibility: hidden; font-family: &quot;Helvetica Neue&quot;, sans-serif; font-size: 12px; font-weight: 200;" x="0" y="377.95999908447266" dx="0em" dy="0.3em" fill="rgb(50, 49, 63)" stroke="none" stroke-width="1px">-500</text><text style="text-anchor: end; visibility: inherit; font-family: &quot;Helvetica Neue&quot;, sans-serif; font-size: 12px; font-weight: 200;" x="0" y="335.96444363064234" dx="0em" dy="0.3em" fill="rgb(50, 49, 63)" stroke="none" stroke-width="1px">-400</text><text style="text-anchor: end; visibility: inherit; font-family: &quot;Helvetica Neue&quot;, sans-serif; font-size: 12px; font-weight: 200;" x="0" y="293.9688881768121" dx="0em" dy="0.3em" fill="rgb(50, 49, 63)" stroke="none" stroke-width="1px">-300</text><text style="text-anchor: end; visibility: inherit; font-family: &quot;Helvetica Neue&quot;, sans-serif; font-size: 12px; font-weight: 200;" x="0" y="251.97333272298178" dx="0em" dy="0.3em" fill="rgb(50, 49, 63)" stroke="none" stroke-width="1px">-200</text><text style="text-anchor: end; visibility: inherit; font-family: &quot;Helvetica Neue&quot;, sans-serif; font-size: 12px; font-weight: 200;" x="0" y="209.9777772691515" dx="0em" dy="0.3em" fill="rgb(50, 49, 63)" stroke="none" stroke-width="1px">-100</text><text style="text-anchor: end; visibility: inherit; font-family: &quot;Helvetica Neue&quot;, sans-serif; font-size: 12px; font-weight: 200;" x="0" y="167.98222181532117" dx="0em" dy="0.3em" fill="rgb(50, 49, 63)" stroke="none" stroke-width="1px">0</text><text style="text-anchor: end; visibility: inherit; font-family: &quot;Helvetica Neue&quot;, sans-serif; font-size: 12px; font-weight: 200;" x="0" y="125.9866663614909" dx="0em" dy="0.3em" fill="rgb(50, 49, 63)" stroke="none" stroke-width="1px">100</text><text style="text-anchor: end; visibility: inherit; font-family: &quot;Helvetica Neue&quot;, sans-serif; font-size: 12px; font-weight: 200;" x="0" y="83.99111090766058" dx="0em" dy="0.3em" fill="rgb(50, 49, 63)" stroke="none" stroke-width="1px">200</text><text style="text-anchor: end; visibility: inherit; font-family: &quot;Helvetica Neue&quot;, sans-serif; font-size: 12px; font-weight: 200;" x="0" y="41.99555545383032" dx="0em" dy="0.3em" fill="rgb(50, 49, 63)" stroke="none" stroke-width="1px">300</text><text style="text-anchor: end; visibility: hidden; font-family: &quot;Helvetica Neue&quot;, sans-serif; font-size: 12px; font-weight: 200;" x="0" y="0" dx="0em" dy="0.3em" fill="rgb(50, 49, 63)" stroke="none" stroke-width="1px">400</text></g><line x1="51.52000045776367" y1="0" x2="51.52000045776367" y2="377.95999908447266" fill="rgb(0, 0, 0)" stroke="rgb(204, 204, 204)" stroke-width="1px"></line></g></g><g transform="translate(51, 0)" clip-path="url(#clip_0)"><clipPath id="clip_0"><rect width="1382" height="377"></rect></clipPath><g><g><g><line x1="0" y1="0" x2="0" y2="377.95999908447266" fill="rgb(0, 0, 0)" stroke="rgb(60, 60, 60)" stroke-width="1px" opacity="0.25"></line><line x1="153.60888883802625" y1="0" x2="153.60888883802625" y2="377.95999908447266" fill="rgb(0, 0, 0)" stroke="rgb(60, 60, 60)" stroke-width="1px" opacity="0.25"></line><line x1="307.2177776760525" y1="0" x2="307.2177776760525" y2="377.95999908447266" fill="rgb(0, 0, 0)" stroke="rgb(60, 60, 60)" stroke-width="1px" opacity="0.25"></line><line x1="460.82666651407874" y1="0" x2="460.82666651407874" y2="377.95999908447266" fill="rgb(0, 0, 0)" stroke="rgb(60, 60, 60)" stroke-width="1px" opacity="0.25"></line><line x1="614.435555352105" y1="0" x2="614.435555352105" y2="377.95999908447266" fill="rgb(0, 0, 0)" stroke="rgb(60, 60, 60)" stroke-width="1px" opacity="0.25"></line><line x1="768.0444441901313" y1="0" x2="768.0444441901313" y2="377.95999908447266" fill="rgb(0, 0, 0)" stroke="rgb(60, 60, 60)" stroke-width="1px" opacity="0.25"></line><line x1="921.6533330281575" y1="0" x2="921.6533330281575" y2="377.95999908447266" fill="rgb(0, 0, 0)" stroke="rgb(60, 60, 60)" stroke-width="1px" opacity="0.25"></line><line x1="1075.2622218661838" y1="0" x2="1075.2622218661838" y2="377.95999908447266" fill="rgb(0, 0, 0)" stroke="rgb(60, 60, 60)" stroke-width="1px" opacity="0.25"></line><line x1="1228.87111070421" y1="0" x2="1228.87111070421" y2="377.95999908447266" fill="rgb(0, 0, 0)" stroke="rgb(60, 60, 60)" stroke-width="1px" opacity="0.25"></line><line x1="1382.4799995422363" y1="0" x2="1382.4799995422363" y2="377.95999908447266" fill="rgb(0, 0, 0)" stroke="rgb(60, 60, 60)" stroke-width="1px" opacity="0.25"></line></g><g><line x1="0" y1="377.95999908447266" x2="1382.4799995422363" y2="377.95999908447266" fill="rgb(0, 0, 0)" stroke="rgb(60, 60, 60)" stroke-width="1px" opacity="0.25"></line><line x1="0" y1="335.96444363064234" x2="1382.4799995422363" y2="335.96444363064234" fill="rgb(0, 0, 0)" stroke="rgb(60, 60, 60)" stroke-width="1px" opacity="0.25"></line><line x1="0" y1="293.9688881768121" x2="1382.4799995422363" y2="293.9688881768121" fill="rgb(0, 0, 0)" stroke="rgb(60, 60, 60)" stroke-width="1px" opacity="0.25"></line><line x1="0" y1="251.97333272298178" x2="1382.4799995422363" y2="251.97333272298178" fill="rgb(0, 0, 0)" stroke="rgb(60, 60, 60)" stroke-width="1px" opacity="0.25"></line><line x1="0" y1="209.9777772691515" x2="1382.4799995422363" y2="209.9777772691515" fill="rgb(0, 0, 0)" stroke="rgb(60, 60, 60)" stroke-width="1px" opacity="0.25"></line><line x1="0" y1="167.98222181532117" x2="1382.4799995422363" y2="167.98222181532117" fill="rgb(0, 0, 0)" stroke="rgb(60, 60, 60)" stroke-width="1px" opacity="0.25"></line><line x1="0" y1="125.9866663614909" x2="1382.4799995422363" y2="125.9866663614909" fill="rgb(0, 0, 0)" stroke="rgb(60, 60, 60)" stroke-width="1px" opacity="0.25"></line><line x1="0" y1="83.99111090766058" x2="1382.4799995422363" y2="83.99111090766058" fill="rgb(0, 0, 0)" stroke="rgb(60, 60, 60)" stroke-width="1px" opacity="0.25"></line><line x1="0" y1="41.99555545383032" x2="1382.4799995422363" y2="41.99555545383032" fill="rgb(0, 0, 0)" stroke="rgb(60, 60, 60)" stroke-width="1px" opacity="0.25"></line><line x1="0" y1="0" x2="1382.4799995422363" y2="0" fill="rgb(0, 0, 0)" stroke="rgb(60, 60, 60)" stroke-width="1px" opacity="0.25"></line></g></g></g><g><g><line x1="0" y1="167.98222181532117" x2="1382.4799995422363" y2="167.98222181532117" fill="rgb(0, 0, 0)" stroke="rgb(153, 153, 153)" stroke-width="1.5px"></line></g></g><g><g><line x1="153.60888883802625" y1="0" x2="153.60888883802625" y2="377.95999908447266" fill="rgb(0, 0, 0)" stroke="rgb(153, 153, 153)" stroke-width="1.5px"></line></g></g><g><g><g><g><g><path style="fill: none;" stroke="rgb(204, 51, 17)" stroke-width="2px" d="M155.91302217059666,169.29845316298926L157.4491110589769,172.4174120219139L158.21715550316705,147.99460329277338L159.7532443915473,171.02941853567148L161.28933327992758,174.3829831691828L162.0573777241177,203.7394866850328L162.82542216830782,171.9078788505407L163.59346661249796,176.68228044106385L164.3615110566881,162.50057421346327L165.12955550087824,162.22207595130863L165.89759994506835,184.70757527449564L166.6656443892585,155.1565937638588L167.43368883344863,169.1210401079143L168.20173327763877,173.81280135666697L168.96977772182888,188.2264812674231L170.50586661020915,172.96492829116158L172.0419554985894,173.5596211547537L172.80999994277954,186.6094047127396L176.65022216373018,170.7174642367335L177.41826660792032,175.92553493059154L178.18631105211045,176.13796937992976L178.9543554963006,167.41950774121426L179.72239994049073,156.4768751761338L181.258488828871,185.4361103077583L183.56262216144137,175.6073386260237L184.3306666056315,179.28418211984024L185.86675549401178,175.98567012967476L186.63479993820192,177.44038605234257L187.40284438239206,161.0525530626095L188.17088882658214,169.73365418198512L189.70697771496242,196.08940185181112L191.2430666033427,178.88604424832062L192.01111104753284,165.06523532289728L194.3152443801032,191.5394417254016L195.08328882429333,189.42423505887402L195.85133326848347,168.68819293240037L196.6193777126736,175.70090122608127L197.38742215686375,181.73379416038142L199.6915554894341,172.28151087749484L200.45959993362425,170.74175220884942L201.99568882200452,176.65840898980736L202.76373326619466,190.54904323180858L203.5317777103848,179.21717192357104L204.29982215457494,184.5384822235882L205.06786659876508,182.8868664776364L205.83591104295516,196.46613215315824L206.6039554871453,204.19690989288202L208.14004437552558,203.1375787990532L208.90808881971572,201.19289737438822L209.67613326390585,215.50592541995886L210.444177708096,214.91974920644006L211.9802665964762,219.88004485753785L213.5163554848565,199.63057889469277L214.28439992904663,227.6888465662567L215.8204888174269,207.01290169141302L216.58853326161704,204.56130476877618L218.12462214999726,222.5627884291238L218.8926665941874,202.43852863662974L219.66071103837754,175.8956431509127L220.42875548256768,187.67492594734125L221.19679992675782,196.92877148377045L221.96484437094796,220.82985980139057L223.50093325932818,197.3247226207779L224.26897770351832,188.3468525917979L225.03702214770846,190.60334153184797L225.8050665918986,174.37054121051003L229.64528881284923,184.26409109740825L230.41333325703937,204.87283673959274L231.94942214541965,173.9858918063226L233.48551103379992,188.97011037583098L234.25355547799006,173.20443939986995L235.0215999221802,201.14936133255574L237.32573325475056,193.0518385780885L240.39791103151111,190.58450677898423L242.70204436408147,214.55690827375233L244.23813325246175,186.4065045860745L245.0061776966519,181.9870308329112L245.77422214084203,193.5851438765132L248.84639991760253,187.71524036052617L249.61444436179266,193.90974819430332L250.3824888059828,185.44412833430275L251.15053325017294,170.99480625300237L252.68662213855322,181.20374733668027L253.4546665827433,192.44343296670144L255.75879991531372,175.23409588587288L258.06293324788413,184.5043195030967L258.83097769207427,183.9133581057041L260.3670665804545,174.83641458529536L261.90315546883477,208.0690287786307L262.6711999130249,213.91512332149017L263.43924435721505,211.23867562289516L264.2072888014052,200.03154750605333L264.9753332455953,199.88470467905714L265.7433776897854,210.76441215629768L267.2794665781657,217.6630036468844L268.0475110223558,203.65520529112615L268.81555546654596,181.8411620239248L269.5835999107361,190.5751670997127L271.1196887991164,198.5657561335324L271.88773324330646,186.71602283873597L272.6557776874966,188.18258477484687L274.1918665758769,192.90549717812695L274.959911020067,181.1853515327223L275.72795546425715,167.78444489522732L277.26404435263737,200.95510561572758L278.0320887968275,201.1256132355538L279.5681776852078,171.52058253639166L280.3362221293979,183.2391774425965L281.8723110177782,205.02126875386807L282.64035546196834,194.7373094598972L283.4083999061584,203.76312584580995L284.9444887945387,177.30267464418822L288.01666657129925,205.663277986593L288.7847110154894,197.67369340884588L289.5527554596795,176.94550960921217L290.3207999038696,198.94360142918018L291.8568887922499,192.3941120909325L292.62493323644003,196.91927801218156L294.1610221248203,207.53511952495978L295.6971110132005,200.00474599075096L296.46515545739067,207.42401098369788L297.2331999015808,209.43577469478075L298.00124434577094,191.50421527471516L299.5373332341512,178.47751738536434L300.30537767834136,172.18327162928747L305.6816887876723,195.30484316094893L308.75386656443277,186.71513052289475L311.0579998970032,188.32538414549978L311.8260443411933,198.09344390696108L312.59408878538346,197.6526815334899L313.36213322957354,187.62139981289513L316.4343110063341,170.27239968338517L317.20235545052424,186.34489954895835L317.9703998947144,188.62463515897576L318.7384443389045,190.13746295055185L321.0425776714749,174.10243314129454L321.810622115665,207.47282082041232L322.57866655985515,184.96466957098522L323.3467110040453,179.48842312327207L324.1147554482354,183.65794270867877L324.8827998924255,163.98514426873223L326.4188887808058,186.18157531195436L327.1869332249959,170.40584015072685L327.95497766918606,203.2403376990864L329.49106655756634,193.66624849786487L330.2591110017565,194.7750606677932L331.02715544594656,179.98008354476656L331.7951998901367,200.89828896649183L332.56324433432684,204.9031306221013L333.331288778517,227.93086440963748L335.6354221110874,227.7408283695162L336.40346655527753,195.913306444455L337.93955544365775,189.383327904466L341.0117332204183,215.56034547224945L341.77977766460845,185.9956756443681L343.31586655298867,202.83429394125375L344.0839109971788,206.4401278375487L344.85195544136894,232.222349312708L345.6199998855591,173.14539276203283L346.38804432974916,196.81751876221105L347.15608877393936,184.5056940219329L349.4602221065097,218.55392894922394L351.7643554390801,247.27433662705073L352.5323998832703,213.18103093876044L353.30044432746035,168.05518016851224L354.06848877165055,201.97341901692033L355.6045776600308,210.40417608098483L358.67675543679127,223.95255192876846L360.21284432517155,226.15171798653822L361.7489332135518,213.50936151623932L362.516977657742,204.5660755346202L363.2850221019321,222.5133313830739L364.0530665461222,220.99568316355126L364.8211109903124,246.24103167892434L366.35719987869265,237.00602089535886L367.12524432288274,180.81912797005484L368.661333211263,208.7978377544586L370.1974220996433,195.25241279676388L371.73351098802357,206.47036404793823L375.5737332089742,198.4550545011101L377.1098220973545,189.28660054687833L377.87786654154456,177.17888945076925L379.41395542992484,220.6513742051025L380.18199987411504,201.04663126858202L380.9500443183051,206.48449692110006L381.7180887624952,214.8527982842932L382.4861332066854,157.5087239032554L383.2541776508755,213.08203354248874L384.0222220950657,206.98387018750927L384.79026653925575,185.32236807306205L385.55831098344595,184.9397472055603L386.32635542763603,131.55217322938444L389.3985332043966,197.8759879782615L390.16657764858667,203.82136186997445L391.70266653696694,199.4411996759268L394.0067998695373,206.06324053987765L397.07897764629786,209.2722614213867L397.84702209048805,205.18405151375478L398.61506653467814,193.4740064991918L399.3831109788682,197.15907868298743L400.9191998672485,238.02541404677956L401.6872443114387,195.98493201224755L402.45528875562877,210.47504870722375L403.22333319981897,192.75313064373313L403.99137764400905,207.53542070158124L404.75942208819924,181.68302507362426L407.0635554207696,217.58551474699343L407.8315998649597,208.06391838808588L409.36768875333996,193.5013302675718L410.90377764172024,219.31821909426387L412.4398665301005,233.15691318509155L413.9759554184808,210.5685544361639L415.51204430686107,223.34640514204227L416.28008875105115,191.39637161619004L417.04813319524135,198.6448021806364L417.81617763943143,196.334376993294L418.5842220836215,210.7976056647893L419.3522665278117,185.61350493979523L420.1203109720018,207.5122236937164L420.888355416192,203.95926872253213L421.65639986038207,189.4957837305079L423.19248874876234,202.47351318481702L424.7285776371426,191.54461940008522L425.4966220813327,219.24549775621034L427.032710969713,211.03463807388312L428.56879985809326,220.79592937137835L429.33684430228334,184.3163148031669L430.10488874647353,187.25902986917927L430.8729331906636,234.7448893497292L431.6409776348538,162.43268892288842L432.4090220790439,180.34094920737846L433.1770665232341,168.98852599898404L433.94511096742417,202.74703282119876L434.71315541161437,207.04954591502488L435.48119985580445,218.0361710928799L436.24924429999453,199.86838346937986L437.7853331883748,189.99153807144978L438.553377632565,229.4525304534505L440.0894665209453,210.77803238840173L441.62555540932544,213.19365792881504L442.39359985351564,213.05496289063103L443.1616442977057,200.12976953272513L443.9296887418959,176.06903998370052L444.697733186086,192.1535136224805L446.2338220744663,203.17965060986435L447.00186651865636,210.41888247133005L448.53795540703663,179.6764614652713L449.30599985122683,234.0611863789732L450.0740442954169,222.4724610747419L450.8420887396071,196.9800516095821L451.6101331837972,205.90736241423795L453.14622207217747,237.84664329390313L453.91426651636755,227.99159315094545L454.68231096055774,205.36470622251858L455.4503554047478,198.96402376731973L459.29057762569846,203.81653022800484L460.05862206988866,218.84624649239336L462.362755402459,181.1640384807448L463.1307998466492,230.59427180132505L464.6668887350295,217.81879526434557L465.43493317921957,154.6136668335808L466.97102206759985,211.4683932848957L468.5071109559801,215.34671833145018L472.34733317693076,216.91080221878835L473.11537762112084,184.1791160360703L475.4195109536913,216.88306192954892L476.1875553978814,184.12732326920084L476.9555998420715,149.15437198384564L477.7236442862617,235.39907060356992L478.49168873045176,230.89438469257945L479.25973317464195,205.1552378823006L480.79582206302223,204.8245491559559L482.3319109514025,210.7392735204265L483.86799983978267,215.65922432027654L485.40408872816295,187.6288283022231L487.7082220607334,206.71477208025092L488.4762665049235,163.42207895540056L490.78039983749386,184.41886544277037L491.54844428168406,188.21983936171816L492.31648872587414,185.38431273487893L493.08453317006433,169.44631886909605L494.6206220584445,153.73703860974192L495.3886665026347,199.42441708929752L497.69279983520505,186.80035870075497L498.46084427939525,215.15418957418544L499.9969331677755,189.00974393761106L502.3010665003459,185.4409243276916L504.60519983291624,163.42951104923597L505.37324427710644,201.6515445127629L506.1412887212965,219.71578825461L506.9093331654866,212.24174756463864L507.6773776096768,170.92457002257657L509.2134664980571,184.66887407863942L509.98151094224716,185.87799888955334L510.74955538643735,214.92620848376814L511.51759983062743,176.62614143922633L512.2856442748176,154.97219917837813L513.0536887190077,185.668607445494L513.8217331631978,197.10512961966865L515.3578220515781,197.5282283046925L516.8939109399583,211.9404684149778L517.6619553841485,231.8078469774219L519.9660887167189,222.72251456670347L520.734133160909,179.1394419221826L523.8063109376695,217.9206442265012L526.1104442702399,207.9576030407143L526.8784887144301,239.81904257976126L528.4145776028104,206.77987749458975L529.1826220470005,197.46206236416538L530.7187109353807,232.48936481566906L531.4867553795708,186.3540902419225L532.254799823761,248.9818542783508L534.5589331563314,187.75268398378753L535.3269776005216,239.63898381622715L536.8630664889017,247.94160304389143L539.9352442656623,255.33557881265648L542.2393775982327,228.78922418878116L543.0074220424228,269.2044097896687L543.7754664866129,267.63419663768343L544.5435109308031,203.55950802166396L545.3115553749932,239.66018793197983L546.0795998191834,284.8367644535442L546.8476442633735,248.55567013496042L548.3837331517537,223.72781649704828L549.1517775959438,237.707108805987L549.919822040134,280.39242280306837L550.6878664843241,257.72561395226643L551.4559109285143,209.70104401413874L552.2239553727044,215.32151561544677L552.9919998168946,207.5820454057869L556.064177593655,222.02648898652095L556.8322220378452,230.27296761034447L561.4404887029859,224.06298122062879L562.9765775913662,245.13050376345572L563.7446220355564,218.47724745899896L564.5126664797465,230.0757353713745L565.2807109239367,241.42129579785825L566.0487553681268,248.61529669799415L566.8167998123168,241.36001596741312L567.584844256507,296.4716402690027L568.3528887006971,210.13916308215573L569.1209331448873,232.451461417459L569.8889775890774,174.71649502585277L570.6570220332676,250.27377382410378L571.4250664774577,219.53847212073504L572.1931109216478,243.9331536768378L572.961155365838,253.96190583421304L573.729199810028,203.60385467716907L574.4972442542182,275.6845708328641L575.2652886984083,251.49214860210412L576.8013775867886,185.45208388271826L577.5694220309788,272.51842917183217L578.3374664751689,242.71087001077183L579.8735553635491,223.20408316837444L581.4096442519294,223.90153132749228L582.9457331403097,220.66940955831674L583.7137775844998,187.93653789315258L586.0179109170701,191.96306106149976L586.7859553612603,199.1978265377495L587.5539998054504,166.55435496742888L589.0900886938307,209.03129449217437L589.8581331380209,245.79414965282584L590.626177582211,203.69667474869445L592.1622664705912,229.2114289559605L593.6983553589715,229.78500381147762L594.4663998031616,171.40696485745238L596.0024886915419,223.39330539081647L596.770533135732,206.3641832688443L597.5385775799222,202.83243882142588L598.3066220241122,222.24534186210303L599.0746664683024,229.0549965371771L599.8427109124925,202.30471330051455L600.6107553566827,215.0864696904519L601.3787998008728,203.09406518526697L602.1468442450629,159.6055451788465L603.6829331334432,243.52145805134307L604.4509775776334,212.4798597239604L605.2190220218234,147.8126109112494L607.5231553543939,171.7315091001185L608.291199798584,186.27527648529784L609.0592442427741,155.44329868844713L610.5953331311543,196.37087062859513L611.3633775753445,159.84129037828427L612.1314220195346,160.93200952287935L612.8994664637248,219.81673368690127L614.435555352105,194.112766869213L615.9716442404853,175.21283890401114L616.7396886846755,135.67669093993402L617.5077331288655,154.3222904673534L619.0438220172458,195.83249178570165L620.5799109056261,194.9031600561141L622.1159997940064,196.19895644986659L622.8840442381965,194.48502597933424L623.6520886823866,191.07039598357034L625.956222014957,224.48473742688256L629.0283997917176,192.22922910471218L629.7964442359076,171.65724743588663L630.5644886800978,235.1157082588787L631.3325331242879,181.62349463078885L632.100577568478,167.99502630702912L633.6366664568583,207.55031933232314L634.4047109010485,189.77674307024074L636.7088442336188,202.85470025936024L637.476888677809,189.58760735597718L639.0129775661892,200.00126964357784L640.5490664545695,196.01070824543436L641.3171108987597,203.36489666010195L643.62124423133,186.4179637157193L645.1573331197103,226.2348683661111L645.9253775639004,218.78704606223891L646.6934220080906,251.4152396274098L648.2295108964709,204.97350342330887L648.9975553406609,203.3708753364384L649.765599784851,173.96140037978688L650.5336442290412,188.39701451930225L651.3016886732313,231.68317267216833L652.0697331174215,197.7123561566228L652.8377775616116,213.71008612241545L653.6058220058018,206.71529112932194L654.3738664499919,234.04458962472737L657.4460442267524,176.68042532123596L658.2140886709425,205.22213113232846L659.7501775593228,206.4082736038205L661.286266447703,196.60838684268722L662.0543108918931,195.59018878573247L662.8223553360833,193.54559682291162L663.5903997802734,233.82057829850135L664.3584442244636,204.7411072117814L665.1264886686537,180.0253369341426L665.8945331128439,183.20351845101757L666.662577557034,165.30172425236964L667.430622001224,172.06005074153293L668.9667108896043,209.97663023478466L669.7347553337945,208.06901596260425L670.5027997779846,225.44247908309129L671.2708442221748,228.09756887361627L672.0388886663649,227.37370047598276L673.5749775547451,183.41892541748933L674.3430219989352,216.67420235058708L675.1110664431254,215.9375435585618L676.6471553315057,200.2412721668002L677.4151997756958,240.72491136893527L678.183244219886,212.30730153990302L678.9512886640761,184.09648790957502L679.7193331082661,210.59365782796237L680.4873775524563,160.05295106002595L681.2554219966464,178.55915627481838L682.0234664408366,179.88181025398896L682.7915108850267,221.54670822053902L685.0956442175972,222.16639513920396L686.6317331059773,150.69650361988747L688.1678219943576,198.75260098306896L690.4719553269281,216.86989346237706L691.2399997711182,198.19329356899135L692.0080442153082,193.43148933146168L692.7760886594983,155.81482968806597L693.5441331036886,166.33030268999335L694.3121775478787,176.4482277581184L695.0802219920688,183.3038743460924L695.8482664362589,190.18375443806994L696.6163108804492,231.06365236184715L697.3843553246393,222.1781730675066L698.1523997688294,186.40426338345L698.9204442130194,221.04937911034776L699.6884886572095,167.46061464540944L701.99262198978,206.4137780871785L702.7606664339701,194.39768796312057L705.0647997665405,161.98206061205983L705.8328442107306,196.3636263696473L707.368933099111,200.99725432269742L708.1369775433011,200.87416600071637L708.9050219874912,217.5970491707936L709.6730664316813,218.90941989074565L710.4411108758713,196.6943439320515L711.2091553200617,180.69777061264548L713.5132886526319,186.82566394496996L714.2813330968222,204.8596522523878L715.0493775410123,169.7168299432699L718.1215553177728,177.8449639771506L718.8895997619629,215.4706909592559L720.4256886503431,232.46006737921658L721.1937330945332,193.09495970106482L721.9617775387235,236.61654185170593L722.7298219829136,151.52090733696602L724.2659108712937,216.8438192565754L726.5700442038642,180.16062371029398L727.3380886480543,189.156947215351L728.8741775364347,186.359870269849L729.6422219806248,188.37026587010894L730.4102664248148,187.9824481038839L731.1783108690049,228.39056887019387L731.9463553131952,190.62018179059623L732.7143997573853,204.39120726179615L733.4824442015754,171.36162335789453L734.2504886457655,198.6562084441721L736.554621978336,204.96320895006718L737.322666422526,220.4432739757075L738.8587553109064,186.33861168598398L740.3948441992866,183.0981611016227L741.1628886434767,186.27535658546307L741.9309330876667,177.50970713838004L742.698977531857,193.20881888200242L744.2350664202372,197.84674180591477L745.0031108644273,206.3289872562207L745.7711553086174,203.05809700705007L746.5391997528077,202.46297841107952L747.3072441969978,185.02291040115963L748.0752886411879,154.7962014932237L748.8433330853779,179.27155993579552L749.6113775295682,219.94395517741071L751.9155108621385,184.9592884418818L752.6835553063286,186.763970797672L754.987688638899,199.93861849830316L755.7557330830891,193.18621461536065L756.5237775272794,169.47761210129164L758.0598664156596,191.42812011770005L759.5959553040398,186.1965123907756L760.3639997482301,190.64630886250697L761.1320441924202,171.08427092860416L761.9000886366102,196.1504734218265L762.6681330808003,190.79731689809768L763.4361775249904,203.99524010475565L764.2042219691807,183.85739852823687L764.9722664133708,176.73326980327553L766.508355301751,203.77810778072376L767.2763997459413,240.06676996292313L768.0444441901313,159.86656758744135L769.5805330785115,178.65053374236712L771.884666411082,224.79484681876377L772.6527108552721,248.23573085079616L773.4207552994621,208.62487586556824L774.1887997436525,223.3206128888224L774.9568441878425,218.3103667746566L776.4929330762227,187.75248853938425L777.2609775204128,284.8385330651936L778.0290219646031,227.61474430135374L779.5651108529833,201.12427075678374L780.3331552971733,234.4182024276418L781.8692441855537,210.9008740018737L784.173377518124,191.68365566497332L785.7094664065044,140.8434367570221L786.4775108506944,215.03704148046148L787.2455552948845,207.29549187051092L789.549688627455,184.22187030028968L790.3177330716451,196.03442750637677L791.8538219600255,185.06905610637693L792.6218664042156,177.98175583540757L794.1579552925957,241.00389704059563L794.9259997367858,173.22388171248733L795.6940441809761,214.87171153531887L797.2301330693563,193.72930174596925L797.9981775135464,189.33719982128508L800.3023108461168,152.33579515440945L801.0703552903069,198.72424872856678L802.6064441786873,171.54335461287965L803.3744886228774,177.17741961273637L804.1425330670675,191.63465038385561L804.9105775112575,205.2826452051935L806.4466663996379,190.61788772186264L807.214710843828,213.48554933910518L807.9827552880181,175.91403735286735L808.7507997322082,198.14936023033908L810.2868886205886,141.62242368038744L811.8229775089687,167.473389670582L813.3590663973491,202.8069861929068L814.1271108415392,236.45568149578588L814.8951552857293,210.55765440567274L815.6631997299194,209.82718255041362L816.4312441741095,146.4803545242652L819.50342195087,172.7290369089222L820.2714663950603,169.61381862759086L821.0395108392504,140.17162385480012L821.8075552834405,219.2766919645766L824.111688616011,193.87695678864137L824.879733060201,183.57045570615767L825.6477775043911,170.30649031372795L826.4158219485812,184.7468563955485L827.1838663927715,189.88859974704636L828.7199552811517,196.33335491518503L829.4879997253418,228.2715208005495L830.2560441695318,236.66510818391794L831.0240886137221,191.76417875912506L832.5601775021023,180.16960694383002L834.0962663904827,167.9214328361858L834.8643108346728,173.55515156553113L835.6323552788629,158.83150203768216L836.4003997230529,194.57047523365065L837.168444167243,214.58952826506058L838.7045330556234,174.5818410410071L839.4725774998135,157.01924380825983L840.2406219440036,219.94958782103313L841.776710832384,144.32481902652293L842.544755276574,205.1058353043631L844.0808441649542,147.89895728741695L844.8488886091445,256.93754367015845L847.9210663859049,209.68665161644142L848.6891108300952,231.55831894254453L850.2251997184753,176.78468369636317L850.9932441626654,147.45323350970838L851.7612886068557,156.3990410445305L852.5293330510458,185.9736000388172L853.2973774952359,210.78783985263848L854.065421939426,155.43762839774703L854.833466383616,128.36589118279477L856.3695552719964,241.00974755666763L857.1375997161865,168.18249529486332L857.9056441603766,191.92038529544237L860.2097774929471,232.86326597917852L860.9778219371372,166.03106389179257L861.7458663813272,117.09311937850345L862.5139108255175,180.08599518730514L864.0499997138977,217.7354814804355L868.6582663790384,153.15107065665282L869.4263108232287,146.65179451001532L870.1943552674188,153.8601397477494L870.9623997116089,134.47859111576912L871.730444155799,193.1786755878046L874.8026219325595,126.57062540243476L877.10675526513,186.03744307455122L877.8747997093201,151.24579370729523L879.4108885977003,91.98221098053477L881.7150219302707,180.74535892183943L882.4830663744608,186.47761911481257L884.0191552628412,177.94939697063813L884.7871997070313,165.52632771906755L885.5552441512214,131.65414394379127L886.3232885954114,208.0555687468572L887.8593774837918,157.86484283007292L888.6274219279819,127.27706720811017L889.395466372172,186.5092330480449L890.1635108163621,176.1516801252206L890.9315552605524,115.53435734614641L891.6995997047425,207.57307418727564L892.4676441489325,176.9468424759624L893.2356885931226,167.32276035858524L894.0037330373127,147.05829964479994L895.5398219256931,97.75923354887078L896.3078663698832,105.55120461086119L897.8439552582636,212.3199317339642L899.3800441466437,108.63301040987403L900.1480885908338,104.68798755769501L901.6841774792142,171.8689277421688L903.2202663675944,111.48442890950463L903.9883108117845,215.4721808223301L904.7563552559748,120.33883895173676L905.5243997001648,177.31839990863577L907.8285330327351,170.9323531553863L908.5965774769254,250.7233408077425L909.3646219211155,201.48529822172952L910.1326663653056,201.9058176814314L911.668755253686,227.70786554950055L912.436799697876,209.9286726638288L913.9728885862562,168.15506222730468L914.7409330304463,148.52062908817751L918.5811552513969,194.19440495766545L919.3491996955872,166.02217978221105L920.8852885839674,162.63013502929965L921.6533330281575,200.62450339756134L923.1894219165379,196.68362332593054L923.957466360728,119.7674396167086L924.725510804918,163.09571043147017L925.4935552491081,127.9735862053108L927.0296441374885,179.74046470133587L927.7976885816786,176.25719687394434L928.5657330258687,158.35907927288275L930.1018219142491,129.39247412505094L930.8698663584391,134.9379495436115L931.6379108026292,171.19676840673202L932.4059552468193,169.7240996340202L934.7100885793898,172.91073251933378L936.2461774677699,165.9707132232647L938.5503108003404,174.61465407371367L940.0863996887208,84.67503815887932L940.8544441329109,199.49267845014836L941.622488577101,108.95282794178712L942.390533021291,160.07404623955384L943.9266219096714,124.718715989196L945.4627107980516,136.06738750609918L946.2307552422417,174.22129297555048L946.998799686432,234.8377799094L948.5348885748122,242.35946097367275L949.3029330190022,195.0831611475292L950.0709774631923,126.9397814321531L950.8390219073826,204.16421300541512L951.6070663515727,177.40663024069067L953.911199684143,162.9300592846648L954.6792441283333,189.44021023583727L955.4472885725233,168.3108686382651L959.287510793474,118.31646036675107L960.0555552376641,169.82869603184494L960.8235996818541,182.53944162275826L961.5916441260445,114.88650720936931L963.1277330144246,157.5035005714776L963.8957774586147,135.8664065793942L964.663821902805,126.18347246758157L965.4318663469951,147.79803748717853L966.1999107911852,152.95977864593996L970.0401330121358,117.51146011370969L970.8081774563259,179.54797279014716L971.576221900516,220.67511589409122L972.3442663447063,145.93907925939524L973.1123107888964,117.20835468028054L973.8803552330864,143.17127892430275L975.4164441214668,183.95992033178084L976.1844885656569,185.95044468303834L976.952533009847,114.21268539500215L977.7205774540371,173.16203677537618L978.4886218982272,101.97478349525676L979.2566663424175,125.26503756447855L980.0247107866076,228.979420429233L980.7927552307976,169.6301884981185L981.5607996749877,204.53687101435946L983.0968885633681,186.42365883747067L983.8649330075582,174.82213272582612L984.6329774517483,169.11504581204562L985.4010218959384,184.4349447499485L986.1690663401287,113.4406735940293L986.9371107843187,227.22351587009112L987.7051552285088,157.55744803279302L989.241244116889,163.32599039663097L990.7773330052694,161.7742923978499L992.3134218936495,171.32888622009455L993.0814663378399,163.4044244784722L993.8495107820299,158.33933137813486L995.3855996704101,131.17037098557185L996.9216885587905,99.30894746655792L997.6897330029806,158.79732650116418L999.2258218913607,153.84299350636974L1000.7619107797411,230.22001819708836L1001.5299552239312,124.1984910477614L1002.2979996681213,187.87570982763964L1003.8340885565017,124.63019889854942L1006.1382218890719,176.80542563416222L1006.9062663332622,146.71541967329975L1009.2103996658325,173.52378313930535L1010.7464885542129,192.4147763315712L1013.0506218867831,153.38170146053753L1015.3547552193536,102.88707952169273L1016.1227996635437,223.63754040677216L1016.8908441077338,184.7670047911228L1017.6588885519241,221.35687723684086L1018.4269329961141,152.97051206808737L1019.1949774403042,147.57753454819172L1019.9630218844943,175.39857676926354L1020.7310663286844,160.9832407875902L1021.4991107728747,103.53852455388756L1022.2671552170648,169.05320327793947L1023.803244105445,147.2500306044185L1024.5712885496353,124.97703902222099L1025.3393329938253,138.11012434909216L1027.6434663263956,140.3775613797326L1028.411510770586,182.9015728679816L1029.947599658966,171.5805082735427L1030.7156441031561,167.50536310336864L1031.4836885473462,171.76927552704595L1032.2517329915365,121.85677873586098L1033.7878218799167,140.18155307128814L1036.0919552124872,75.29874990780127L1036.8599996566772,108.7950754722799L1037.6280441008673,91.18941158466868L1038.3960885450574,87.55122362961424L1039.1641329892477,139.64573743368356L1039.9321774334378,112.7822758674883L1040.7002218776279,195.57649486147636L1041.468266321818,96.20271432114157L1042.2363107660083,127.76712642730072L1043.0043552101984,170.79200645179426L1043.7723996543884,140.6832204064309L1044.5404440985785,85.43388149268031L1045.3084885427686,160.14292997868887L1046.076532986959,191.40632966873753L1047.612621875339,196.42476842780812L1048.3806663195292,148.9394312003358L1049.1487107637192,163.0411053477978L1049.9167552079095,212.48840160558578L1057.5971996498108,193.09909126758993L1059.9013329823813,185.68819353790806L1060.6693774265714,187.25988053293455L1061.4374218707615,122.71118797485309L1062.2054663149515,130.99591923360725L1063.741555203332,128.36473774041477L1064.509599647522,142.24873328071766L1065.277644091712,102.6521617569623L1066.0456885359022,165.89403493704634L1066.8137329800923,155.86459672175553L1068.3498218684726,148.19720865083022L1069.1178663126627,174.5970704854316L1069.8859107568528,167.21179409524194L1070.6539552010431,175.3991975455444L1071.4219996452332,153.03906819754644L1072.1900440894233,142.1234534182146L1072.9580885336134,239.65711849364632L1073.7261329778034,150.62212420841263L1074.4941774219938,218.2932349513067L1075.2622218661838,89.53452294596354L1076.030266310374,110.66161437970521L1077.5663551987543,124.04833848193584L1078.3343996429444,97.44385677012082L1079.8704885313246,116.96953123149109L1080.6385329755146,163.85703646989398L1081.406577419705,87.2812860726238L1082.942666308085,130.29947072455207L1083.7107107522752,134.54950859810054L1084.4787551964655,134.13298773864943L1085.2467996406556,76.17159179682739L1086.0148440848457,165.25609919822674L1086.7828885290357,127.6350604787952L1089.8550663057963,105.56453327836363L1091.3911551941765,124.72922833488724L1093.695288526747,167.76908408653176L1094.463332970937,96.99376432939795L1095.9994218593174,97.93313421169825L1096.7674663035075,138.10572524801506L1097.5355107476976,68.33157985970922L1099.071599636078,72.87794348869772L1099.839644080268,138.1838677652547L1100.6076885244581,106.51688579545242L1101.3757329686482,125.58460197986932L1102.1437774128385,118.89577039410221L1102.9118218570286,173.82077332561633L1103.6798663012187,158.54395686236006L1104.4479107454088,114.40829961063343L1105.2159551895988,187.58591864368313L1107.5200885221693,140.54083755663746L1108.2881329663594,115.6115482734225L1109.0561774105495,118.82261971916273L1110.5922662989299,126.28686255691716L1111.36031074312,122.68720598536856L1112.12835518731,125.49290010665123L1112.8963996315003,93.7328097047286L1113.6644440756904,170.0873464742955L1115.9685774082607,178.07615468119062L1116.736621852451,194.7295557638982L1117.504666296641,96.44246372784164L1118.2727107408311,69.42603647801621L1119.0407551850212,146.05394449840873L1119.8087996292115,100.83191433705508L1120.5768440734016,138.26250690351907L1122.1129329617818,108.45889187459704L1122.8809774059719,105.40490966899551L1123.6490218501622,132.93667895418014L1124.4170662943523,104.4050225098236L1125.1851107385423,176.4564196020215L1125.9531551827324,146.82870373505062L1126.7211996269225,137.53796246049058L1127.4892440711128,136.22396090117348L1129.793377403683,118.50601260187409L1130.5614218478734,209.1963649127815L1132.0975107362535,137.46912758245637L1135.169688513014,202.9240093303729L1135.9377329572042,162.26389024008844L1137.4738218455846,188.70781757861477L1138.2418662897746,201.95757840823472L1140.5459996223449,191.27251433262234L1142.0820885107253,138.56988327776094L1142.8501329549154,147.70724715384134L1143.6181773991054,134.80254822422376L1145.1542662874858,131.74714343968688L1145.922310731676,162.1317878460077L1146.690355175866,107.02124129214195L1147.458399620056,137.34891325440555L1148.9944885084365,173.73106074000293L1149.7625329526265,155.9320682949767L1150.5305773968166,178.22857888770346L1151.2986218410067,144.26650290219317L1152.066666285197,175.61795430092818L1153.6027551735772,199.43949834841627L1154.3707996177673,160.1945889782823L1155.1388440619576,182.70530823900825L1156.6749329503377,165.13769453316L1157.4429773945278,176.2672774797447L1159.7471107270983,178.18220009100523L1161.2831996154785,135.68837274803832L1162.0512440596685,130.6605078015177L1163.587332948049,148.69011142588818L1164.355377392239,142.9125233503853L1165.123421836429,142.05222995325178L1165.8914662806194,116.71614877666053L1166.6595107248095,166.82944076229225L1167.4275551689996,194.80516871791832L1168.1955996131896,216.74395357451206L1170.4997329457601,195.2268448240068L1171.2677773899502,123.8516765561427L1172.0358218341403,145.90665150848363L1172.8038662783306,186.36615012280694L1173.5719107225207,185.97451798671128L1174.3399551667108,158.9037619987837L1175.1079996109008,188.4335722347356L1176.6440884992812,152.43193778079063L1177.4121329434713,176.803398298979L1178.1801773876614,159.5587346422574L1178.9482218318515,181.2558869372654L1179.7162662760418,137.70541025400317L1180.4843107202319,172.08877666330613L1182.788444052802,157.49897250913432L1184.3245329411825,193.89397647175986L1185.0925773853726,174.49957416625725L1185.8606218295627,181.10879579975685L1186.6286662737527,175.64575466529158L1187.396710717943,183.06763813264146L1188.1647551621331,178.866394876776L1188.9327996063232,206.79402959179126L1189.7008440505133,171.8370787149514L1190.4688884947036,143.74128932246495L1191.2369329388937,174.54754415273874L1193.541066271464,182.95445339509553L1194.3091107156542,170.7286654438461L1196.6132440482245,187.9479409526817L1197.3812884924148,208.3866579740283L1198.917377380795,157.02244300886107L1199.685421824985,163.7695682909117L1200.4534662691751,174.04404853132345L1201.9895551575555,144.02327554631665L1202.7575996017456,201.69358107950137L1203.5256440459357,206.71574609826072L1205.061732934316,176.58735293418997L1205.8297773785062,194.70831159806286L1206.5978218226962,177.82860031438577L1208.1339107110766,193.3375847036984L1208.9019551552667,168.74772307486015L1209.6699995994568,147.2162123146377L1211.206088487837,133.12769862433106L1211.9741329320273,191.46985070180716L1212.7421773762173,144.5233264601241L1214.2782662645975,178.70464460801975L1215.0463107087878,141.7451755816743L1216.582399597168,151.61020940923234L1217.350444041358,162.4655015550942L1218.1184884855481,170.47093014578388L1218.8865329297385,168.43336131539206L1219.6545773739285,143.6887564300683L1220.4226218181186,182.0575301923799L1221.9587107064988,163.26390435802233L1222.726755150689,152.48192989594457L1225.0308884832593,158.17317880429485L1226.5669773716397,159.08597225275722L1228.87111070421,173.0942452019947L1231.9432884809705,175.5068081125886L1235.7835107019212,114.49508974171664L1238.0876440344916,149.875518577863L1238.8556884786817,191.16711533114153L1239.6237329228718,179.60550393285718L1240.391777367062,237.73648954661135L1241.1598218112522,191.65711367420644L1241.9278662554423,239.6035154630416L1243.4639551438227,178.94970545667945L1244.2319995880127,162.55704402898337L1245.768088476393,147.25476452418653L1246.536132920583,162.26894375951585L1248.0722218089634,148.0757543722209L1248.8402662531535,126.50734627186432L1249.6083106973435,138.34468006107556L1250.3763551415338,126.4175507825799L1251.912444029914,243.73367222522683L1252.680488474104,166.1382929817996L1253.4485329182942,171.65786340615765L1254.2165773624845,113.78293839626014L1254.9846218066746,158.96101519392022L1255.7526662508646,188.69605086433526L1256.5207106950547,120.85407845888443L1257.288755139245,138.30179122857854L1258.0567995834351,204.31675255616597L1259.5928884718153,140.32680991501178L1261.1289773601957,174.5659171281496L1261.8970218043858,198.3145171591247L1263.433110692766,205.09660776532294L1265.7372440253364,201.94737364717818L1267.2733329137166,156.7621943678628L1270.345510690477,152.66473289114117L1271.1135551346672,133.8781250327645L1271.8815995788575,136.42421772238438L1272.6496440230476,111.16139455495403L1274.953777355618,190.75410446093292L1275.7218217998081,191.44472167795578L1276.4898662439982,141.12145001267598L1278.7939995765687,126.23403809991893L1279.5620440207588,165.5095425291829L1281.098132909139,225.85571263175936L1281.866177353329,176.42141663079616L1282.6342217975193,167.45939201651169L1284.9383551300896,109.96644106528129L1285.7063995742799,173.21470824105873L1288.0105329068501,115.18499246526522L1288.7785773510402,149.2809959271221L1289.5466217952305,168.36119684870633L1290.3146662394206,198.59085952533084L1291.0827106836107,152.68350035986603L1291.8507551278008,212.19384766580174L1292.618799571991,148.0465626679866L1294.1548884603712,168.65885674749293L1294.9229329045613,179.46173134519614L1295.6909773487514,161.14922515108313L1296.4590217929417,85.77226303889842L1297.2270662371318,207.7033843401582L1297.9951106813219,78.789431806491L1298.763155125512,113.05587240002865L1299.531199569702,181.27015998571648L1300.2992440138923,189.94552373050357L1303.371421790653,122.88864188101232L1304.907510679033,167.74866254939388" fill="none"></path></g></g></g></g></g></g><g transform="translate(51, 377)" clip-path="url(#clip_1)"><clipPath id="clip_1"><rect width="1382" height="22"></rect></clipPath><g><g><line x1="0" y1="0" x2="0" y2="5" style="visibility: inherit;" fill="rgb(0, 0, 0)" stroke="rgb(204, 204, 204)" stroke-width="1px"></line><line x1="153.60888883802625" y1="0" x2="153.60888883802625" y2="5" style="visibility: inherit;" fill="rgb(0, 0, 0)" stroke="rgb(204, 204, 204)" stroke-width="1px"></line><line x1="307.2177776760525" y1="0" x2="307.2177776760525" y2="5" style="visibility: inherit;" fill="rgb(0, 0, 0)" stroke="rgb(204, 204, 204)" stroke-width="1px"></line><line x1="460.82666651407874" y1="0" x2="460.82666651407874" y2="5" style="visibility: inherit;" fill="rgb(0, 0, 0)" stroke="rgb(204, 204, 204)" stroke-width="1px"></line><line x1="614.435555352105" y1="0" x2="614.435555352105" y2="5" style="visibility: inherit;" fill="rgb(0, 0, 0)" stroke="rgb(204, 204, 204)" stroke-width="1px"></line><line x1="768.0444441901313" y1="0" x2="768.0444441901313" y2="5" style="visibility: inherit;" fill="rgb(0, 0, 0)" stroke="rgb(204, 204, 204)" stroke-width="1px"></line><line x1="921.6533330281575" y1="0" x2="921.6533330281575" y2="5" style="visibility: inherit;" fill="rgb(0, 0, 0)" stroke="rgb(204, 204, 204)" stroke-width="1px"></line><line x1="1075.2622218661838" y1="0" x2="1075.2622218661838" y2="5" style="visibility: inherit;" fill="rgb(0, 0, 0)" stroke="rgb(204, 204, 204)" stroke-width="1px"></line><line x1="1228.87111070421" y1="0" x2="1228.87111070421" y2="5" style="visibility: inherit;" fill="rgb(0, 0, 0)" stroke="rgb(204, 204, 204)" stroke-width="1px"></line><line x1="1382.4799995422363" y1="0" x2="1382.4799995422363" y2="5" style="visibility: inherit;" fill="rgb(0, 0, 0)" stroke="rgb(204, 204, 204)" stroke-width="1px"></line></g><g transform="translate(0, 8)"><text style="text-anchor: middle; visibility: hidden; font-family: &quot;Helvetica Neue&quot;, sans-serif; font-size: 12px; font-weight: 200;" x="0" y="0" dx="0em" dy="0.95em" fill="rgb(50, 49, 63)" stroke="none" stroke-width="1px">-200</text><text style="text-anchor: middle; visibility: inherit; font-family: &quot;Helvetica Neue&quot;, sans-serif; font-size: 12px; font-weight: 200;" x="153.60888883802625" y="0" dx="0em" dy="0.95em" fill="rgb(50, 49, 63)" stroke="none" stroke-width="1px">0</text><text style="text-anchor: middle; visibility: inherit; font-family: &quot;Helvetica Neue&quot;, sans-serif; font-size: 12px; font-weight: 200;" x="307.2177776760525" y="0" dx="0em" dy="0.95em" fill="rgb(50, 49, 63)" stroke="none" stroke-width="1px">200</text><text style="text-anchor: middle; visibility: inherit; font-family: &quot;Helvetica Neue&quot;, sans-serif; font-size: 12px; font-weight: 200;" x="460.82666651407874" y="0" dx="0em" dy="0.95em" fill="rgb(50, 49, 63)" stroke="none" stroke-width="1px">400</text><text style="text-anchor: middle; visibility: inherit; font-family: &quot;Helvetica Neue&quot;, sans-serif; font-size: 12px; font-weight: 200;" x="614.435555352105" y="0" dx="0em" dy="0.95em" fill="rgb(50, 49, 63)" stroke="none" stroke-width="1px">600</text><text style="text-anchor: middle; visibility: inherit; font-family: &quot;Helvetica Neue&quot;, sans-serif; font-size: 12px; font-weight: 200;" x="768.0444441901313" y="0" dx="0em" dy="0.95em" fill="rgb(50, 49, 63)" stroke="none" stroke-width="1px">800</text><text style="text-anchor: middle; visibility: inherit; font-family: &quot;Helvetica Neue&quot;, sans-serif; font-size: 12px; font-weight: 200;" x="921.6533330281575" y="0" dx="0em" dy="0.95em" fill="rgb(50, 49, 63)" stroke="none" stroke-width="1px">1k</text><text style="text-anchor: middle; visibility: inherit; font-family: &quot;Helvetica Neue&quot;, sans-serif; font-size: 12px; font-weight: 200;" x="1075.2622218661838" y="0" dx="0em" dy="0.95em" fill="rgb(50, 49, 63)" stroke="none" stroke-width="1px">1.2k</text><text style="text-anchor: middle; visibility: inherit; font-family: &quot;Helvetica Neue&quot;, sans-serif; font-size: 12px; font-weight: 200;" x="1228.87111070421" y="0" dx="0em" dy="0.95em" fill="rgb(50, 49, 63)" stroke="none" stroke-width="1px">1.4k</text><text style="text-anchor: middle; visibility: hidden; font-family: &quot;Helvetica Neue&quot;, sans-serif; font-size: 12px; font-weight: 200;" x="1382.4799995422363" y="0" dx="0em" dy="0.95em" fill="rgb(50, 49, 63)" stroke="none" stroke-width="1px">1.6k</text></g><line x1="0" y1="0" x2="1382.4799995422363" y2="0" fill="rgb(0, 0, 0)" stroke="rgb(204, 204, 204)" stroke-width="1px"></line></g></g></g></g></svg>