<svg viewBox="0 0 1434 400" xmlns="http://www.w3.org/2000/svg"><g><g><g><g><g><line x1="41.140000343322754" y1="377.95999908447266" x2="36.140000343322754" y2="377.95999908447266" style="visibility: inherit;" fill="rgb(255, 255, 255)" stroke="rgb(204, 204, 204)" stroke-width="1px"></line><line x1="41.140000343322754" y1="330.7149991989136" x2="36.140000343322754" y2="330.7149991989136" style="visibility: inherit;" fill="rgb(255, 255, 255)" stroke="rgb(204, 204, 204)" stroke-width="1px"></line><line x1="41.140000343322754" y1="283.4699993133545" x2="36.140000343322754" y2="283.4699993133545" style="visibility: inherit;" fill="rgb(255, 255, 255)" stroke="rgb(204, 204, 204)" stroke-width="1px"></line><line x1="41.140000343322754" y1="236.2249994277954" x2="36.140000343322754" y2="236.2249994277954" style="visibility: inherit;" fill="rgb(255, 255, 255)" stroke="rgb(204, 204, 204)" stroke-width="1px"></line><line x1="41.140000343322754" y1="188.97999954223633" x2="36.140000343322754" y2="188.97999954223633" style="visibility: inherit;" fill="rgb(255, 255, 255)" stroke="rgb(204, 204, 204)" stroke-width="1px"></line><line x1="41.140000343322754" y1="141.73499965667725" x2="36.140000343322754" y2="141.73499965667725" style="visibility: inherit;" fill="rgb(255, 255, 255)" stroke="rgb(204, 204, 204)" stroke-width="1px"></line><line x1="41.140000343322754" y1="94.48999977111816" x2="36.140000343322754" y2="94.48999977111816" style="visibility: inherit;" fill="rgb(255, 255, 255)" stroke="rgb(204, 204, 204)" stroke-width="1px"></line><line x1="41.140000343322754" y1="47.24499988555908" x2="36.140000343322754" y2="47.24499988555908" style="visibility: inherit;" fill="rgb(255, 255, 255)" stroke="rgb(204, 204, 204)" stroke-width="1px"></line><line x1="41.140000343322754" y1="0" x2="36.140000343322754" y2="0" style="visibility: inherit;" fill="rgb(255, 255, 255)" stroke="rgb(204, 204, 204)" stroke-width="1px"></line></g><g transform="translate(31.140000343322754, 0)"><text style="text-anchor: end; visibility: hidden; font-family: &quot;Helvetica Neue&quot;, sans-serif; font-size: 12px; font-weight: 200;" x="0" y="377.95999908447266" dx="0em" dy="0.3em" fill="rgb(50, 49, 63)" stroke="none" stroke-width="1px">-50</text><text style="text-anchor: end; visibility: inherit; font-family: &quot;Helvetica Neue&quot;, sans-serif; font-size: 12px; font-weight: 200;" x="0" y="330.7149991989136" dx="0em" dy="0.3em" fill="rgb(50, 49, 63)" stroke="none" stroke-width="1px">-40</text><text style="text-anchor: end; visibility: inherit; font-family: &quot;Helvetica Neue&quot;, sans-serif; font-size: 12px; font-weight: 200;" x="0" y="283.4699993133545" dx="0em" dy="0.3em" fill="rgb(50, 49, 63)" stroke="none" stroke-width="1px">-30</text><text style="text-anchor: end; visibility: inherit; font-family: &quot;Helvetica Neue&quot;, sans-serif; font-size: 12px; font-weight: 200;" x="0" y="236.2249994277954" dx="0em" dy="0.3em" fill="rgb(50, 49, 63)" stroke="none" stroke-width="1px">-20</text><text style="text-anchor: end; visibility: inherit; font-family: &quot;Helvetica Neue&quot;, sans-serif; font-size: 12px; font-weight: 200;" x="0" y="188.97999954223633" dx="0em" dy="0.3em" fill="rgb(50, 49, 63)" stroke="none" stroke-width="1px">-10</text><text style="text-anchor: end; visibility: inherit; font-family: &quot;Helvetica Neue&quot;, sans-serif; font-size: 12px; font-weight: 200;" x="0" y="141.73499965667725" dx="0em" dy="0.3em" fill="rgb(50, 49, 63)" stroke="none" stroke-width="1px">0</text><text style="text-anchor: end; visibility: inherit; font-family: &quot;Helvetica Neue&quot;, sans-serif; font-size: 12px; font-weight: 200;" x="0" y="94.48999977111816" dx="0em" dy="0.3em" fill="rgb(50, 49, 63)" stroke="none" stroke-width="1px">10</text><text style="text-anchor: end; visibility: inherit; font-family: &quot;Helvetica Neue&quot;, sans-serif; font-size: 12px; font-weight: 200;" x="0" y="47.24499988555908" dx="0em" dy="0.3em" fill="rgb(50, 49, 63)" stroke="none" stroke-width="1px">20</text><text style="text-anchor: end; visibility: hidden; font-family: &quot;Helvetica Neue&quot;, sans-serif; font-size: 12px; font-weight: 200;" x="0" y="0" dx="0em" dy="0.3em" fill="rgb(50, 49, 63)" stroke="none" stroke-width="1px">30</text></g><line x1="41.140000343322754" y1="0" x2="41.140000343322754" y2="377.95999908447266" fill="rgb(255, 255, 255)" stroke="rgb(204, 204, 204)" stroke-width="1px"></line></g></g><g transform="translate(41, 0)" clip-path="url(#clip_0)"><clipPath id="clip_0"><rect width="1392" height="377"></rect></clipPath><g><g><g><line x1="0" y1="0" x2="0" y2="377.95999908447266" fill="rgb(255, 255, 255)" stroke="rgb(60, 60, 60)" stroke-width="1px" opacity="0.25"></line><line x1="139.28599996566774" y1="0" x2="139.28599996566774" y2="377.95999908447266" fill="rgb(255, 255, 255)" stroke="rgb(60, 60, 60)" stroke-width="1px" opacity="0.25"></line><line x1="278.5719999313355" y1="0" x2="278.5719999313355" y2="377.95999908447266" fill="rgb(255, 255, 255)" stroke="rgb(60, 60, 60)" stroke-width="1px" opacity="0.25"></line><line x1="417.85799989700314" y1="0" x2="417.85799989700314" y2="377.95999908447266" fill="rgb(255, 255, 255)" stroke="rgb(60, 60, 60)" stroke-width="1px" opacity="0.25"></line><line x1="557.143999862671" y1="0" x2="557.143999862671" y2="377.95999908447266" fill="rgb(255, 255, 255)" stroke="rgb(60, 60, 60)" stroke-width="1px" opacity="0.25"></line><line x1="696.4299998283386" y1="0" x2="696.4299998283386" y2="377.95999908447266" fill="rgb(255, 255, 255)" stroke="rgb(60, 60, 60)" stroke-width="1px" opacity="0.25"></line><line x1="835.7159997940063" y1="0" x2="835.7159997940063" y2="377.95999908447266" fill="rgb(255, 255, 255)" stroke="rgb(60, 60, 60)" stroke-width="1px" opacity="0.25"></line><line x1="975.001999759674" y1="0" x2="975.001999759674" y2="377.95999908447266" fill="rgb(255, 255, 255)" stroke="rgb(60, 60, 60)" stroke-width="1px" opacity="0.25"></line><line x1="1114.287999725342" y1="0" x2="1114.287999725342" y2="377.95999908447266" fill="rgb(255, 255, 255)" stroke="rgb(60, 60, 60)" stroke-width="1px" opacity="0.25"></line><line x1="1253.5739996910095" y1="0" x2="1253.5739996910095" y2="377.95999908447266" fill="rgb(255, 255, 255)" stroke="rgb(60, 60, 60)" stroke-width="1px" opacity="0.25"></line><line x1="1392.8599996566772" y1="0" x2="1392.8599996566772" y2="377.95999908447266" fill="rgb(255, 255, 255)" stroke="rgb(60, 60, 60)" stroke-width="1px" opacity="0.25"></line></g><g><line x1="0" y1="377.95999908447266" x2="1392.8599996566772" y2="377.95999908447266" fill="rgb(255, 255, 255)" stroke="rgb(60, 60, 60)" stroke-width="1px" opacity="0.25"></line><line x1="0" y1="330.7149991989136" x2="1392.8599996566772" y2="330.7149991989136" fill="rgb(255, 255, 255)" stroke="rgb(60, 60, 60)" stroke-width="1px" opacity="0.25"></line><line x1="0" y1="283.4699993133545" x2="1392.8599996566772" y2="283.4699993133545" fill="rgb(255, 255, 255)" stroke="rgb(60, 60, 60)" stroke-width="1px" opacity="0.25"></line><line x1="0" y1="236.2249994277954" x2="1392.8599996566772" y2="236.2249994277954" fill="rgb(255, 255, 255)" stroke="rgb(60, 60, 60)" stroke-width="1px" opacity="0.25"></line><line x1="0" y1="188.97999954223633" x2="1392.8599996566772" y2="188.97999954223633" fill="rgb(255, 255, 255)" stroke="rgb(60, 60, 60)" stroke-width="1px" opacity="0.25"></line><line x1="0" y1="141.73499965667725" x2="1392.8599996566772" y2="141.73499965667725" fill="rgb(255, 255, 255)" stroke="rgb(60, 60, 60)" stroke-width="1px" opacity="0.25"></line><line x1="0" y1="94.48999977111816" x2="1392.8599996566772" y2="94.48999977111816" fill="rgb(255, 255, 255)" stroke="rgb(60, 60, 60)" stroke-width="1px" opacity="0.25"></line><line x1="0" y1="47.24499988555908" x2="1392.8599996566772" y2="47.24499988555908" fill="rgb(255, 255, 255)" stroke="rgb(60, 60, 60)" stroke-width="1px" opacity="0.25"></line><line x1="0" y1="0" x2="1392.8599996566772" y2="0" fill="rgb(255, 255, 255)" stroke="rgb(60, 60, 60)" stroke-width="1px" opacity="0.25"></line></g></g></g><g><g><line x1="0" y1="141.73499965667725" x2="1392.8599996566772" y2="141.73499965667725" fill="rgb(255, 255, 255)" stroke="rgb(153, 153, 153)" stroke-width="1.5px"></line></g></g><g><g><line x1="139.28599996566774" y1="0" x2="139.28599996566774" y2="377.95999908447266" fill="rgb(255, 255, 255)" stroke="rgb(153, 153, 153)" stroke-width="1.5px"></line></g></g><g><g><g><g><g><path style="fill: none;" stroke="rgb(204, 51, 17)" stroke-width="2px" d="M139.28599996566774,142.93783096944497L140.67885996532442,225.44543157518348L142.07171996498107,236.72236738656684L143.46457996463775,118.97515296202556L144.85743996429443,134.13435842769647L146.2502999639511,198.46132293979446L147.6431599636078,158.58371773334034L149.03601996326447,191.7717356089679L150.42887996292114,86.85147629537721L151.82173996257782,89.167354301471L153.2145999622345,118.71216359374705L154.60745996189118,110.02069140534667L156.00031996154786,110.38883777248168L157.39317996120454,114.94776020625903L158.78603996086122,115.68912177911307L160.1788999605179,121.667548803778L161.57175996017457,124.45954845011599L162.96461995983125,125.79235112022738L164.3574799594879,124.06567491114541L165.75033995914458,123.47282017112738L167.14319995880126,127.90984942745229L168.53605995845794,130.3860401546486L169.92891995811462,128.06286752662808L171.3217799577713,128.01350492367928L172.71463995742798,129.2361290655103L174.10749995708466,130.88474516039764L175.50035995674133,129.81763073350862L176.893219956398,128.3498381334521L178.2860799560547,129.27462520494342L179.67893995571137,131.4513759823989L181.07179995536805,131.1878008816618L182.46465995502473,130.74734584251223L183.8575199546814,129.75563658480834L185.2503799543381,130.09488493997128L186.64323995399477,130.6907111458082L188.03609995365144,128.2283042803348L189.42895995330812,128.94197647761692L190.8218199529648,132.8320453848725L192.21467995262148,130.79355112222743L193.60753995227816,131.6885401812959L195.00039995193484,129.79601270015186L196.39325995159146,131.64864166318785L197.78611995124814,130.8855741971083L199.17897995090482,132.54624173733137L200.5718399505615,131.62934853712832L201.96469995021818,132.1593789653269L203.35755994987485,127.1844355471923L204.75041994953153,130.1955746024223L206.1432799491882,131.23061116593422L207.5361399488449,130.47725446817313L208.92899994850157,131.38420148066572L210.32185994815825,131.4420594570814L211.71471994781493,129.31774637798233L213.1075799474716,132.03182220556315L214.50043994712829,129.83040758596619L215.89329994678496,130.83582861524425L217.28615994644164,132.42296195092402L218.67901994609832,131.44612804485152L220.071879945755,131.95157122669164L221.46473994541168,132.44324350050746L222.85759994506836,131.89873477969994L224.25045994472504,130.57541759619218L225.64331994438172,130.92383491714938L227.0361799440384,131.81935789388203L228.42903994369507,132.08680671370595L229.82189994335175,132.66738360026486L231.21475994300843,130.9963384578473L232.6076199426651,131.67817046396146L234.0004799423218,130.74116073303108L235.39333994197847,131.9308622050543L236.78619994163515,131.05364562047018L238.17905994129183,131.7793974233024L239.57191994094848,130.61769621561757L240.96477994060515,131.35274990045585L242.35763994026183,131.33536153129538L243.7504999399185,131.23718038073915L245.1433599395752,132.02236600558243L246.53621993923187,132.1952043900305L247.92907993888855,129.96567235960342L249.32193993854523,130.25411180320825L250.7147999382019,132.9626017706694L252.10765993785859,133.14035692854404L253.50051993751526,130.44355908208342L254.89337993717194,129.22993945039488L256.2862399368286,131.4940702465882L257.6790999364853,130.5555714035227L259.071959936142,132.01697050851183L260.46481993579863,128.60716955146222L261.85767993545534,128.93688736367855L263.250539935112,130.9675902582156L264.6433999347687,130.39263640325933L266.03625993442535,129.43962603853194L267.42911993408205,130.75897375822407L268.8219799337387,129.87088395167282L270.2148399333954,129.1197980935974L271.60769993305206,130.02481669461088L273.00055993270877,130.5763344927716L274.3934199323654,129.65446932512182L275.7862799320221,128.51860793013L277.1791399316788,129.87734390484607L278.5719999313355,129.456909651695L279.96485993099213,129.02796650817416L281.35771993064884,130.27203409003292L282.7505799303055,127.03416701134623L284.14343992996214,127.33254363139301L285.5362999296188,129.2684254521508L286.9291599292755,128.36611586375838L288.32201992893215,128.08990471163546L289.71487992858886,129.6883235348205L291.1077399282455,128.80191545627062L292.5005999279022,125.44925833260058L293.89345992755887,127.84132886747287L295.2863199272156,127.29990819577162L296.6791799268722,127.2917417336084L298.07203992652893,125.91162652415332L299.4648999261856,128.11048419628676L300.8577599258423,126.09874889573129L302.25061992549894,127.04504811817336L303.64347992515565,127.18089749786063L305.0363399248123,125.72785634449232L306.429199924469,129.18662566148973L307.82205992412565,126.34204301008927L309.21491992378236,127.00395560697663L310.607779923439,125.71618787807179L312.0006399230957,126.1090746831313L313.39349992275237,126.45980564729999L314.7863599224091,125.75878414471512L316.1792199220657,126.55517528205493L317.57207992172243,126.44964769477755L318.9649399213791,124.6585341567978L320.3577999210358,123.7077743564017L321.75065992069244,125.18887209453712L323.14351992034915,126.53145762311578L324.5363799200058,124.41890424953178L325.9292399196625,124.02627989767007L327.32209991931916,123.59716891927167L328.7149599189758,121.18529950088998L330.1078199186325,124.66022827529343L331.50067991828917,120.76348427082695L332.8935399179459,119.86744427255871L334.2863999176025,119.60423863383392L335.67925991725923,121.94105206968845L337.0721199169159,118.78819391969085L338.4649799165726,119.05472471652678L339.85783991622924,120.17410450126039L341.25069991588595,119.21011277934275L342.6435599155426,117.07542209804927L344.0364199151993,120.76210554673207L345.42927991485595,116.02732144789337L346.82213991451266,118.34202123061851L348.2149999141693,119.09427292156823L349.60785991382596,118.41325756167038L351.00071991348267,118.55379955947791L352.3935799131393,117.02955699372353L353.786439912796,117.73816485805588L355.1792999124527,118.3502597829305L356.5721599121094,115.91042051324195L357.96501991176603,118.66042088948086L359.35787991142274,116.50836098797265L360.7507399110794,115.05474649264005L362.1435999107361,116.91847508576654L363.53645991039275,114.34979945617397L364.92931991004946,114.09744563765338L366.3221799097061,116.41677045398433L367.7150399093628,115.54866313554004L369.10789990901947,112.01973320767911L370.5007599086762,116.0480969276366L371.8936199083328,114.66730024099411L373.28647990798953,115.62625691658491L374.6793399076462,111.50471893218366L376.0721999073029,114.09685765237765L377.46505990695954,116.31602672392171L378.85791990661625,114.37605829285656L380.2507799062729,115.99485609996674L381.6436399059296,116.94940175958084L383.03649990558625,120.80055662982221L384.42935990524296,117.35695215145972L385.8222199048996,117.76888427269245L387.2150799045563,119.11544264431245L388.60793990421297,119.87229233506224L390.0007999038697,118.53798928872993L391.3936599035263,121.38832338231043L392.7865199031829,119.02508665412148L394.1793799028396,119.07854375223758L395.5722399024963,116.21189926250213L396.965099902153,121.47594670530032L398.35795990180964,118.29193885259076L399.75081990146634,121.13290573246798L401.143679901123,116.78687001358702L402.5365399007797,119.72607098522337L403.92939990043635,118.32582347532099L405.32225990009306,118.47573268683186L406.7151198997497,120.63081812177046L408.1079798994064,121.21422792589357L409.50083989906307,120.22809776985787L410.8936998987198,120.9252117610987L412.2865598983764,119.04071444668045L413.67941989803313,119.67625443961919L415.0722798976898,121.04973172334633L416.4651398973465,119.51080754823528L417.85799989700314,119.94200801453889L419.25085989665985,120.2598827670057L420.6437198963165,120.34152260764921L422.0365798959732,117.36721823920533L423.42943989562986,116.9049649413272L424.82229989528656,115.91374341853594L426.2151598949432,115.52374021942649L427.6080198945999,115.09253074185426L429.00087989425657,113.4989734980756L430.3937398939133,111.22574132060242L431.7865998935699,109.3705666741887L433.17945989322664,109.87165403407226L434.5723198928833,102.61466767059682L435.96517989254,103.24014883496767L437.35803989219664,97.05513397215339L438.75089989185335,97.77108376757258L440.14375989151,89.46139650132409L441.5366198911667,84.16369872877914L442.92947989082336,79.25080465336498L444.32233989048007,92.9885331867348L445.7151998901367,111.23447549268707L447.1080598897934,128.1542755824274L448.5009198894501,313.37389414219433L449.8937798891068,183.41238273586416L451.28663988876343,84.75042693256194L452.67949988842014,111.91168584442119L454.0723598880768,123.28264635872179L455.4652198877335,125.25634847376821L456.85807988739015,131.53632183220782L458.25093988704685,131.0298288375765L459.6437998867035,131.76753859383282L461.0366598863602,134.3357400054157L462.42951988601686,134.75289528320715L463.82237988567357,134.51550354977815L465.2152398853302,135.1718821013403L466.6080998849869,135.20770977886104L468.0009598846436,135.01030667622604L469.3938198843003,135.1523299013087L470.78667988395694,135.8331380020289L472.17953988361364,135.6707729645041L473.5723998832703,136.34114601619254L474.965259882927,135.4935725628523L476.35811988258365,135.69505044850462L477.75097988224036,136.68911896896722L479.14383988189695,135.88049728732838L480.5366998815536,135.90417495876315L481.9295598812103,136.63331161936097L483.32241988086696,136.54667334066923L484.71527988052367,136.08582974312174L486.1081398801803,136.29444286388755L487.500999879837,136.51471149737526L488.8938598794937,136.6438852166473L490.2867198791504,136.78001957770388L491.67957987880703,136.59584163813898L493.07243987846374,135.55932384735195L494.4652998781204,136.43334706362813L495.8581598777771,136.69668561856466L497.25101987743375,136.03658090743895L498.64387987709046,136.58321347161322L500.0367398767471,137.78840813037075L501.4295998764038,135.87992338215983L502.82245987606046,136.52757114086305L504.21531987571717,137.36795275705896L505.6081798753738,137.86392087157472L507.00103987503053,137.2198094725903L508.3938998746872,136.46707286274935L509.7867598743439,136.89544548032737L511.17961987400054,137.18028379572033L512.5724798736572,136.60867199500382L513.965339873314,136.2814593154566L515.3581998729705,135.9423590830212L516.7510598726273,136.6424912860367L518.143919872284,136.30516514710573L519.5367798719407,137.17131561225443L520.9296398715973,136.740939395425L522.322499871254,136.51484666640417L523.7153598709107,137.30075995118642L525.1082198705673,136.93090313263147L526.501079870224,137.27820868832592L527.8939398698807,136.6350108066952L529.2867998695374,136.85726417209074L530.679659869194,136.41862715638L532.0725198688507,136.96031253409623L533.4653798685074,136.12425604522323L534.8582398681641,137.03213938484316L536.2510998678207,136.2186310612071L537.6439598674774,136.16141570088305L539.0368198671341,135.93051602327168L540.4296798667908,136.88121837683045L541.8225398664474,135.70350020242424L543.2153998661041,136.7475547929815L544.6082598657608,136.22709940086824L546.0011198654175,137.04801892971847L547.3939798650741,136.14850086337512L548.7868398647308,136.60076460681267L550.1796998643875,136.70833718885658L551.5725598640443,136.45747698810544L552.9654198637008,136.27296450519398L554.3582798633576,136.58837298608748L555.7511398630143,137.07112016156535L557.143999862671,136.60973419828932L558.5368598623276,136.88297388459338L559.9297198619843,137.49669900427705L561.322579861641,137.23468792184525L562.7154398612977,136.70404162975873L564.1082998609543,136.04871007496635L565.501159860611,136.07519926220237L566.8940198602676,136.55747334607904L568.2868798599243,136.01657307513906L569.679739859581,136.443658770921L571.0725998592376,136.52431356726638L572.4654598588943,136.26053571298587L573.858319858551,137.37708877540243L575.2511798582077,136.46963600546005L576.6440398578643,137.0230351875419L578.036899857521,136.24557475430285L579.4297598571777,136.190907893378L580.8226198568344,136.04384230031278L582.215479856491,137.07039306483065L583.6083398561477,136.74379596756927L585.0011998558044,136.51918164980214L586.3940598554611,136.0643198449881L587.7869198551177,136.11205366113856L589.1797798547744,136.83383937938092L590.5726398544311,136.59815190212473L591.9654998540879,136.68197922821943L593.3583598537444,137.66737750028403L594.7512198534012,136.90025411853077L596.1440798530579,137.6871003512146L597.5369398527146,136.7646947890514L598.9297998523712,136.60742449750785L600.3226598520279,135.90527320712303L601.7155198516846,136.54241945868864L603.1083798513413,136.62644841191812L604.5012398509979,136.79569017378864L605.8940998506546,136.21398180981694L607.2869598503113,136.4904925866206L608.679819849968,136.41486382533347L610.0726798496246,136.60617868962473L611.4655398492813,136.65935193278017L612.858399848938,137.50131784263573L614.2512598485947,136.98828069579022L615.6441198482513,136.74520961032994L617.036979847908,135.81873405238585L618.4298398475647,136.40493509695588L619.8226998472214,136.46377755446545L621.215559846878,136.9450767317211L622.6084198465347,137.09701629468705L624.0012798461914,136.92110675726133L625.3941398458481,137.1270542321362L626.7869998455047,136.35861210754467L628.1798598451614,136.39288083559867L629.5727198448182,135.93175788872477L630.9655798444749,135.9971718138564L632.3584398441315,136.5618072030684L633.7512998437882,136.42841114125585L635.1441598434449,136.96826103620032L636.5370198431016,136.03774054506613L637.9298798427582,137.1088861066402L639.3227398424149,136.83815239781165L640.7155998420716,137.29623967357801L642.1084598417283,136.48024790063792L643.5013198413849,136.08717692777654L644.8941798410416,135.85736930327786L646.2870398406983,136.67260075043035L647.679899840355,136.6686194593247L649.0727598400116,136.4818057236961L650.4656198396683,136.22466128950927L651.858479839325,136.66536808097518L653.2513398389816,136.61949002295077L654.6441998386383,136.54433322685625L656.0370598382949,136.79090744298244L657.4299198379516,136.68672591395128L658.8227798376083,136.87901512165925L660.215639837265,136.8349365013322L661.6084998369216,136.45349851302123L663.0013598365783,136.2802309669064L664.394219836235,135.63180936551268L665.7870798358917,136.49113351309936L667.1799398355483,136.18533048132267L668.572799835205,136.52668353090655L669.9656598348618,136.62727463260734L671.3585198345185,136.43290156903703L672.751379834175,135.78035956507873L674.1442398338318,136.80840451057034L675.5370998334885,135.6926765424344L676.9299598331452,136.33722160871991L678.3228198328018,136.1328803924719L679.7156798324585,136.6701322260399L681.1085398321152,136.17484699672224L682.5013998317719,135.78809010712374L683.8942598314285,137.02051569316345L685.2871198310852,136.67561389336643L686.6799798307419,135.92047352762805L688.0728398303986,136.86550272440272L689.4656998300552,136.22745590918197L690.8585598297119,137.54485268922355L692.2514198293686,136.45486315700893L693.6442798290253,136.6402480433611L695.0371398286819,136.48136529794357L696.4299998283386,136.92137822172774L697.8228598279953,135.920340048212L699.2157198276519,136.25956643840775L700.6085798273086,136.85714589919044L702.0014398269653,135.6715423015603L703.394299826622,136.20214269249743L704.7871598262786,136.84452955995468L706.1800198259353,136.08757511320752L707.572879825592,136.6136963404492L708.9657398252488,136.42419499396246L710.3585998249054,136.23553789070212L711.7514598245621,135.86570866915721L713.1443198242188,136.76395699143526L714.5371798238755,136.7611308323225L715.9300398235321,136.21607524015215L717.3228998231888,136.25903308394786L718.7157598228455,136.24644997376504L720.1086198225022,135.9350914949002L721.5014798221588,135.5591943103659L722.8943398218155,136.3444976449052L724.2871998214722,136.25435004030047L725.6800598211289,136.12138314015468L727.0729198207855,136.7336605432183L728.4657798204422,135.54802540614807L729.8586398200989,136.39112532783574L731.2514998197556,136.81506834369551L732.6443598194122,136.19588830888898L734.0372198190689,136.0061397157202L735.4300798187256,136.1647183308227L736.8229398183823,136.50855961694708L738.2157998180389,136.50213458243965L739.6086598176956,135.69131865689818L741.0015198173523,135.49325660524724L742.394379817009,135.74239903292266L743.7872398166656,135.712456276998L745.1800998163224,135.91480712929535L746.5729598159791,137.0808444467867L747.9658198156358,135.7053739830875L749.3586798152924,136.4444404984715L750.7515398149491,135.26235636443155L752.1443998146058,136.48949740464528L753.5372598142625,136.8025691509515L754.9301198139191,136.58408756466682L756.3229798135758,136.29104617883192L757.7158398132325,136.1887919348713L759.1086998128892,135.41629924504682L760.5015598125458,135.42295406690337L761.8944198122025,136.76510930740668L763.2872798118592,135.85405484604817L764.6801398115159,135.60403776211487L766.0729998111725,136.11149270966857L767.4658598108292,136.79019893198924L768.8587198104859,135.9298063858699L770.2515798101426,135.3088060748074L771.6444398097992,136.69219800680492L773.0372998094559,136.2564248848942L774.4301598091126,136.70944613809792L775.8230198087693,135.86179552577033L777.2158798084259,135.26749053471295L778.6087398080826,136.15470850102773L780.0015998077394,135.61305860518164L781.3944598073961,136.01980586774712L782.7873198070527,136.10379370706366L784.1801798067092,136.42403898637494L785.5730398063658,137.06635601650058L786.9658998060225,136.1610721462679L788.3587598056793,136.10160340559108L789.751619805336,136.4028585627493L791.1444798049926,136.43569168307542L792.5373398046493,135.95355727386195L793.930199804306,136.90666394652246L795.3230598039627,136.18804118355658L796.7159198036193,136.49801812230507L798.108779803276,135.62998514682667L799.5016398029327,136.49275666785482L800.8944998025894,136.6585330337467L802.287359802246,135.76060404829948L803.6802198019027,135.62752563370483L805.0730798015594,136.84729545620874L806.4659398012161,136.21789213718242L807.8587998008727,135.9999185611647L809.2516598005294,136.1893810465556L810.6445198001861,136.07910958956782L812.0373797998428,136.30389005259966L813.4302397994994,136.05779343370898L814.8230997991561,136.2950004361318L816.2159597988128,136.3048289141463L817.6088197984695,135.8825862120293L819.0016797981261,136.45735533597943L820.3945397977828,136.5517506273176L821.7873997974395,136.15784160647698L823.1802597970963,136.59612267707823L824.5731197967528,135.91798416467898L825.9659797964096,136.5690393093193L827.3588397960663,136.05806996701395L828.751699795723,135.21025433583023L830.1445597953796,136.22500822335016L831.5374197950363,136.8350080282767L832.930279794693,136.412952309983L834.3231397943497,136.30519781295436L835.7159997940063,135.81610445156926L837.108859793663,135.7443037898217L838.5017197933197,136.67821927639864L839.8945797929764,135.88507782779553L841.287439792633,135.81326308594075L842.6802997922897,136.28397514900715L844.0731597919464,135.90215981382383L845.4660197916031,135.76870517876537L846.8588797912597,136.35210597161986L848.2517397909164,136.09055840631638L849.6445997905731,136.66658572864392L851.0374597902298,136.0799329942356L852.4303197898864,135.98003463380797L853.8231797895431,136.4669100967104L855.2160397891998,136.3307548970952L856.6088997888565,135.7608045490257L858.0017597885131,136.18980119695382L859.3946197881698,136.41508122218832L860.7874797878266,136.33900358708436L862.1803397874833,135.09286622947045L863.5731997871399,136.2428623624561L864.9660597867966,136.15651863960656L866.3589197864533,136.634355236905L867.75177978611,136.33223443475748L869.1446397857666,136.72315734646781L870.5374997854233,136.0772352457003L871.93035978508,136.3761773228513L873.3232197847366,136.87632075234967L874.7160797843933,136.0189250162421L876.10893978405,136.70442235585682L877.5017997837067,136.66379617780981L878.8946597833633,135.23060178031525L880.28751978302,136.02232733334054L881.6803797826767,136.23624020644817L883.0732397823334,135.40824317092384L884.46609978199,136.3177521997185L885.8589597816467,136.17286113840586L887.2518197813034,136.19477147478764L888.6446797809601,135.93641558817924L890.0375397806167,136.3506219283233L891.4303997802734,136.59654282747644L892.8232597799301,136.0794047086143L894.2161197795868,135.6896425609397L895.6089797792434,136.23781154640923L897.0018397789001,136.44817735891652L898.3946997785569,136.9258342940474L899.7875597782136,135.7534716292074L901.1804197778702,136.9943469691668L902.5732797775269,136.79704073766916L903.9661397771836,136.2270611029767L905.3589997768403,136.01070561287585L906.7518597764969,136.3578416440799L908.1447197761536,136.11162900510604L909.5375797758103,135.79531996055746L910.930439775467,135.3344701677628L912.3232997751236,136.44745927345045L913.7161597747803,136.61625216150415L915.109019774437,136.6162713104499L916.5018797740937,136.25080692213018L917.8947397737503,135.98372531150144L919.287599773407,136.221049460416L920.6804597730637,136.86069295979073L922.0733197727204,135.910875400167L923.466179772377,135.51652595357382L924.8590397720337,135.52610662170198L926.2518997716904,136.19013179787035L927.6447597713471,137.09256979684025L929.0376197710037,137.03085021022991L930.4304797706604,136.39430855846652L931.8233397703171,136.47340496854943L933.2161997699739,135.9226531282192L934.6090597696304,136.69525958530969L936.0019197692872,136.33210095534142L937.3947797689439,135.8768719413322L938.7876397686006,135.2402979053223L940.1804997682572,137.02754955150527L941.5733597679139,136.48833326138381L942.9662197675706,136.49624797123067L944.3590797672273,136.58347930403673L945.7519397668839,136.2475133034591L947.1447997665406,136.54049273682242L948.5376597661973,136.22921535937493L949.930519765854,136.02481725949391L951.3233797655106,136.38343308368226L952.7162397651673,136.52715774891632L954.109099764824,135.65802201944373L955.5019597644807,135.91566939505893L956.8948197641373,136.1304484763601L958.2876797637939,135.65762496042132L959.6805397634505,135.87121905990242L961.0733997631072,136.18645914271403L962.4662597627639,136.1474578090354L963.8591197624206,136.53603272207272L965.2519797620772,135.82858055293752L966.6448397617339,135.75990116934915L968.0376997613906,135.62898940164706L969.4305597610473,135.88752100799306L970.8234197607039,136.77493496939977L972.2162797603606,136.84311873321545L973.6091397600173,135.30231232937692L975.001999759674,136.17381126403822L976.3948597593306,135.85998031835297L977.7877197589874,135.99291962148865L979.1805797586441,135.82514669639895L980.5734397583008,135.73160128033L981.9662997579574,136.27488615822165L983.3591597576141,135.59226116047122L984.7520197572708,136.23348163184986L986.1448797569275,136.46132479979505L987.5377397565841,135.4570915683585L988.9305997562408,135.8708653676101L990.3234597558975,135.66992590525626L991.7163197555542,135.68606565051223L993.1091797552108,135.76731519058478L994.5020397548675,135.94336609228654L995.8948997545242,136.125412866829L997.2877597541809,136.41714254987917L998.6806197538375,136.27278934866072L1000.0734797534942,136.0660212851395L1001.4663397531509,135.86929628046616L1002.8591997528076,135.60331460781018L1004.2520597524642,135.4252744685663L1005.6449197521209,135.99021567770623L1007.0377797517776,135.61428639052755L1008.4306397514343,136.24153376354278L1009.8234997510909,136.188340245033L1011.2163597507476,135.68675332294677L1012.6092197504043,135.09461779480338L1014.0020797500611,136.07775395684874L1015.3949397497177,135.50839666289355L1016.7877997493744,135.37650548293615L1018.1806597490311,135.75469828814474L1019.5735197486878,135.9593092792463L1020.9663797483444,136.35979314693478L1022.3592397480011,135.42583710964917L1023.7520997476578,135.75063589562177L1025.1449597473145,135.39681125030393L1026.537819746971,135.87871305614678L1027.930679746628,135.81374856803626L1029.3235397462845,136.31013373532667L1030.716399745941,135.78725769118736L1032.109259745598,135.9349208440012L1033.5021197452545,136.24743783408465L1034.894979744911,135.86338995710716L1036.287839744568,136.0015586120488L1037.6806997442245,135.80584737509227L1039.0735597438813,136.9002079357792L1040.466419743538,135.96399401250656L1041.8592797431945,135.63190736305862L1043.2521397428513,136.32479957496324L1044.644999742508,136.35369871334385L1046.0378597421645,136.1093897048605L1047.4307197418213,135.91936401518242L1048.823579741478,135.96902793242484L1050.2164397411345,135.14611888443036L1051.6092997407914,136.07748305558664L1053.002159740448,135.11454002005163L1054.3950197401048,135.63393996733083L1055.7878797397614,135.71094688950853L1057.180739739418,136.48465384777606L1058.5735997390748,135.000891026954L1059.9664597387314,135.75223370618434L1061.359319738388,136.33544920482834L1062.7521797380448,135.87013094921969L1064.1450397377014,135.77911769962563L1065.5378997373582,135.6427344022742L1066.9307597370148,135.65783897805042L1068.3236197366714,136.43416314664017L1069.7164797363282,135.2711220759563L1071.1093397359848,135.47948344440576L1072.5021997356414,135.74707024928003L1073.8950597352982,136.04295243753913L1075.2879197349548,135.57500627072676L1076.6807797346116,135.54166739295079L1078.0736397342682,136.1635158896697L1079.4664997339248,135.73667237173126L1080.8593597335816,135.51422075842666L1082.2522197332382,136.96371372478612L1083.6450797328948,136.02360073823374L1085.0379397325516,136.38142638680725L1086.4307997322082,135.72623000104377L1087.823659731865,135.86106617621851L1089.2165197315217,135.88482832829632L1090.6093797311783,136.33649845441525L1092.002239730835,135.0203463558482L1093.3950997304917,135.7140878798178L1094.7879597301483,135.56136489968847L1096.180819729805,135.8133227855952L1097.5736797294617,135.88927538934743L1098.9665397291185,136.57982861384764L1100.359399728775,135.74943401767305L1101.7522597284317,135.6662735254543L1103.1451197280885,135.43682015645223L1104.537979727745,136.0873999566742L1105.9308397274017,136.04173141064464L1107.3236997270585,135.75309540874363L1108.716559726715,135.256111555296L1110.109419726372,136.1900292946901L1111.5022797260285,135.60820322102236L1112.895139725685,135.40324304326282L1114.287999725342,135.67871470815675L1115.6808597249985,135.63797870527375L1117.0737197246551,136.1323864623121L1118.466579724312,134.82485533176796L1119.8594397239685,136.24630072462895L1121.2522997236254,135.93875964442222L1122.645159723282,135.63280623710088L1124.0380197229385,135.9838199298217L1125.4308797225954,135.76464053342525L1126.823739722252,135.4063964240664L1128.2165997219086,136.04806745887473L1129.6094597215654,135.6894550139121L1131.002319721222,135.71106797843026L1132.3951797208786,135.35843056774965L1133.7880397205352,135.5594883030038L1135.180899720192,135.85736254482643L1136.5737597198486,135.03862458778235L1137.9666197195052,135.39026174764902L1139.359479719162,135.80071489442375L1140.7523397188186,135.22310891047945L1142.1451997184752,134.90036300413337L1143.538059718132,136.1461308997349L1144.9309197177886,136.21833932138637L1146.3237797174454,135.51760111055793L1147.716639717102,136.14782051259627L1149.1094997167586,136.0447541280536L1150.5023597164154,136.08630565074435L1151.895219716072,135.62093783315842L1153.2880797157286,135.76061531238523L1154.6809397153854,135.11804990916895L1156.073799715042,135.90308684808042L1157.4666597146988,135.27458972475208L1158.8595197143554,136.09433750708294L1160.252379714012,136.44458129954327L1161.6452397136688,134.89404666805333L1163.0380997133254,136.45497523466204L1164.430959712982,135.98152994119027L1165.8238197126389,135.5715273578452L1167.2166797122954,135.37240535572593L1168.6095397119523,135.32747686012962L1170.0023997116089,135.35450165464275L1171.3952597112655,135.12056799553665L1172.7881197109223,135.19507935951813L1174.1809797105789,136.2324920819174L1175.5738397102355,135.47013706926103L1176.9666997098923,134.85474289367247L1178.3595597095489,135.38418589979958L1179.7524197092057,135.76008421074246L1181.1452797088623,134.59019626554007L1182.5381397085189,135.5552856726133L1183.9309997081757,135.2680131882914L1185.3238597078323,135.20192003878947L1186.716719707489,135.55467515916607L1188.1095797071457,135.88963133445688L1189.5024397068023,134.99417537903437L1190.8952997064591,135.12207907263897L1192.2881597061157,135.6570386647584L1193.6810197057723,135.18670845419868L1195.0738797054291,135.75391599738995L1196.4667397050857,135.60474570990377L1197.8595997047423,135.2911941135449L1199.2524597043991,135.68227584886418L1200.6453197040557,135.16283647728488L1202.0381797037126,135.44852410474286L1203.4310397033692,135.90044936240386L1204.8238997030257,135.47772906305138L1206.2167597026826,135.5371764019653L1207.6096197023392,134.75411574689733L1209.0024797019958,135.29105049645167L1210.3953397016526,135.0779807401619L1211.7881997013092,136.07680270480782L1213.181059700966,135.42629161550886L1214.5739197006226,135.2383559769403L1215.9667797002792,136.24920854836333L1217.359639699936,135.89682288999907L1218.7524996995926,134.9219252802657L1220.1453596992492,135.52599792327456L1221.538219698906,135.4493390613463L1222.9310796985626,135.62476199026796L1224.3239396982192,136.06145876720953L1225.716799697876,135.49416449055806L1227.1096596975326,134.73402287075007L1228.5025196971894,135.33496128190117L1229.895379696846,135.49292431471784L1231.2882396965026,135.91798134865755L1232.6810996961594,134.76124478676368L1234.073959695816,134.95743362095564L1235.4668196954726,135.2079040843401L1236.8596796951294,135.32698968842126" fill="none"></path></g></g></g></g></g></g><g transform="translate(41, 377)" clip-path="url(#clip_1)"><clipPath id="clip_1"><rect width="1392" height="22"></rect></clipPath><g><g><line x1="0" y1="0" x2="0" y2="5" style="visibility: inherit;" fill="rgb(255, 255, 255)" stroke="rgb(204, 204, 204)" stroke-width="1px"></line><line x1="139.28599996566774" y1="0" x2="139.28599996566774" y2="5" style="visibility: inherit;" fill="rgb(255, 255, 255)" stroke="rgb(204, 204, 204)" stroke-width="1px"></line><line x1="278.5719999313355" y1="0" x2="278.5719999313355" y2="5" style="visibility: inherit;" fill="rgb(255, 255, 255)" stroke="rgb(204, 204, 204)" stroke-width="1px"></line><line x1="417.85799989700314" y1="0" x2="417.85799989700314" y2="5" style="visibility: inherit;" fill="rgb(255, 255, 255)" stroke="rgb(204, 204, 204)" stroke-width="1px"></line><line x1="557.143999862671" y1="0" x2="557.143999862671" y2="5" style="visibility: inherit;" fill="rgb(255, 255, 255)" stroke="rgb(204, 204, 204)" stroke-width="1px"></line><line x1="696.4299998283386" y1="0" x2="696.4299998283386" y2="5" style="visibility: inherit;" fill="rgb(255, 255, 255)" stroke="rgb(204, 204, 204)" stroke-width="1px"></line><line x1="835.7159997940063" y1="0" x2="835.7159997940063" y2="5" style="visibility: inherit;" fill="rgb(255, 255, 255)" stroke="rgb(204, 204, 204)" stroke-width="1px"></line><line x1="975.001999759674" y1="0" x2="975.001999759674" y2="5" style="visibility: inherit;" fill="rgb(255, 255, 255)" stroke="rgb(204, 204, 204)" stroke-width="1px"></line><line x1="1114.287999725342" y1="0" x2="1114.287999725342" y2="5" style="visibility: inherit;" fill="rgb(255, 255, 255)" stroke="rgb(204, 204, 204)" stroke-width="1px"></line><line x1="1253.5739996910095" y1="0" x2="1253.5739996910095" y2="5" style="visibility: inherit;" fill="rgb(255, 255, 255)" stroke="rgb(204, 204, 204)" stroke-width="1px"></line><line x1="1392.8599996566772" y1="0" x2="1392.8599996566772" y2="5" style="visibility: inherit;" fill="rgb(255, 255, 255)" stroke="rgb(204, 204, 204)" stroke-width="1px"></line></g><g transform="translate(0, 8)"><text style="text-anchor: middle; visibility: hidden; font-family: &quot;Helvetica Neue&quot;, sans-serif; font-size: 12px; font-weight: 200;" x="0" y="0" dx="0em" dy="0.95em" fill="rgb(50, 49, 63)" stroke="none" stroke-width="1px">-100</text><text style="text-anchor: middle; visibility: inherit; font-family: &quot;Helvetica Neue&quot;, sans-serif; font-size: 12px; font-weight: 200;" x="139.28599996566774" y="0" dx="0em" dy="0.95em" fill="rgb(50, 49, 63)" stroke="none" stroke-width="1px">0</text><text style="text-anchor: middle; visibility: inherit; font-family: &quot;Helvetica Neue&quot;, sans-serif; font-size: 12px; font-weight: 200;" x="278.5719999313355" y="0" dx="0em" dy="0.95em" fill="rgb(50, 49, 63)" stroke="none" stroke-width="1px">100</text><text style="text-anchor: middle; visibility: inherit; font-family: &quot;Helvetica Neue&quot;, sans-serif; font-size: 12px; font-weight: 200;" x="417.85799989700314" y="0" dx="0em" dy="0.95em" fill="rgb(50, 49, 63)" stroke="none" stroke-width="1px">200</text><text style="text-anchor: middle; visibility: inherit; font-family: &quot;Helvetica Neue&quot;, sans-serif; font-size: 12px; font-weight: 200;" x="557.143999862671" y="0" dx="0em" dy="0.95em" fill="rgb(50, 49, 63)" stroke="none" stroke-width="1px">300</text><text style="text-anchor: middle; visibility: inherit; font-family: &quot;Helvetica Neue&quot;, sans-serif; font-size: 12px; font-weight: 200;" x="696.4299998283386" y="0" dx="0em" dy="0.95em" fill="rgb(50, 49, 63)" stroke="none" stroke-width="1px">400</text><text style="text-anchor: middle; visibility: inherit; font-family: &quot;Helvetica Neue&quot;, sans-serif; font-size: 12px; font-weight: 200;" x="835.7159997940063" y="0" dx="0em" dy="0.95em" fill="rgb(50, 49, 63)" stroke="none" stroke-width="1px">500</text><text style="text-anchor: middle; visibility: inherit; font-family: &quot;Helvetica Neue&quot;, sans-serif; font-size: 12px; font-weight: 200;" x="975.001999759674" y="0" dx="0em" dy="0.95em" fill="rgb(50, 49, 63)" stroke="none" stroke-width="1px">600</text><text style="text-anchor: middle; visibility: inherit; font-family: &quot;Helvetica Neue&quot;, sans-serif; font-size: 12px; font-weight: 200;" x="1114.287999725342" y="0" dx="0em" dy="0.95em" fill="rgb(50, 49, 63)" stroke="none" stroke-width="1px">700</text><text style="text-anchor: middle; visibility: inherit; font-family: &quot;Helvetica Neue&quot;, sans-serif; font-size: 12px; font-weight: 200;" x="1253.5739996910095" y="0" dx="0em" dy="0.95em" fill="rgb(50, 49, 63)" stroke="none" stroke-width="1px">800</text><text style="text-anchor: middle; visibility: hidden; font-family: &quot;Helvetica Neue&quot;, sans-serif; font-size: 12px; font-weight: 200;" x="1392.8599996566772" y="0" dx="0em" dy="0.95em" fill="rgb(50, 49, 63)" stroke="none" stroke-width="1px">900</text></g><line x1="0" y1="0" x2="1392.8599996566772" y2="0" fill="rgb(255, 255, 255)" stroke="rgb(204, 204, 204)" stroke-width="1px"></line></g></g></g></g></svg>